<?xml version="1.0" encoding="utf-8"?>
<!-- Generator: Adobe Illustrator 26.5.0, SVG Export Plug-In . SVG Version: 6.00 Build 0)  -->
<svg version="1.1" id="Layer_1" xmlns="http://www.w3.org/2000/svg" xmlns:xlink="http://www.w3.org/1999/xlink" x="0px" y="0px"
	 viewBox="0 0 2500 1154" style="enable-background:new 0 0 2500 1154;" xml:space="preserve">
<style type="text/css">
	.st0{fill:#FFFFFF;}
</style>
<path class="st0" d="M791.9,0.6c0-0.5-215.1,0-215.1,0C258.5,0.6,0.4,258.7,0.4,577s258.1,576.4,576.4,576.4l404.4-0.3
	c101.6,0,183.9-81.7,183.9-183.3l0.2-351.6l279.5,440.8c37.8,57.2,102.7,94.9,176.4,94.9c116.7,0,211.3-94.6,211.3-211.3l-0.1-324.5
	l279.5,440.8c37.8,57.2,102.7,94.9,176.4,94.9c116.7,0,211.3-94.6,211.3-211.3l-0.1-942.7h-143.8v942.7c0,37.2-30.2,67.4-67.4,67.4
	c-23.3,0-43.8-11.8-55.9-29.7L1735,196.8c-8-11.6-23.9-14.5-35.5-6.6c-6.9,4.8-11.1,12.6-11.1,21l0.2,731.5
	c0,37.2-30.2,67.4-67.4,67.4c-23.3,0-43.8-11.8-55.9-29.7l-497.5-783.6c-8-11.6-23.9-14.5-35.5-6.6c-6.9,4.8-11,12.6-11,21
	l-0.1,758.5c0,22.1-17.9,40.1-40.1,40.1l-404.4-0.3c-238.9,0-432.5-193.7-432.5-432.5s193.7-432.5,432.5-432.5l215.1-0.2V0.6z"/>
<path class="st0" d="M815.1,824.8c11.3,0,20.5-9.2,20.5-20.5l0,0l0.1-593C835.6,94.6,930.2,0,1046.9,0c74,0,139.1,38,176.8,95.6
	l278.5,436.9l0.5-321.2C1502.7,94.6,1597.3,0,1714,0c74,0,139.1,38,176.8,95.6l278.5,436.9V0.1h144.8l-0.3,942.7
	c0,14.1-11.4,25.5-25.5,25.5c-8,0-15.6-3.8-20.4-10.2l-498.1-784.4c-12.1-17.9-32.6-29.7-55.9-29.7c-37.2,0-67.4,30.2-67.4,67.4
	l0.2,731.5c0,14.1-11.4,25.5-25.5,25.5c-8,0-15.6-3.8-20.4-10.2l-498.1-784.4c-12.1-17.9-32.6-29.7-55.9-29.7
	c-37.2,0-67.4,30.2-67.4,67.4l0.3,737.3c0,11.3-9.2,20.5-20.5,20.5l-382.5-0.1c-215.8,0-390.7-176.2-390.7-391.9
	c0-215.8,174.9-391.9,390.7-391.9c0,0,215.1-0.8,215.1,0v145.3l-215.1-0.2c-136.3,0-246.8,110.5-246.8,246.8
	c0,136.3,110.5,248.1,246.8,248.1L815.1,824.8L815.1,824.8z"/>
</svg>
