<?xml version="1.0" encoding="utf-8"?>
<!-- Generator: Adobe Illustrator 26.5.0, SVG Export Plug-In . SVG Version: 6.00 Build 0)  -->
<svg version="1.1" id="Layer_1" xmlns="http://www.w3.org/2000/svg" xmlns:xlink="http://www.w3.org/1999/xlink" x="0px" y="0px"
	 viewBox="0 0 1054 86" style="enable-background:new 0 0 1054 86;" xml:space="preserve">
<style type="text/css">
	.st0{fill-rule:evenodd;clip-rule:evenodd;fill:#FFFFFF;}
</style>
<path class="st0" d="M26.2,72.6c0,5.9,1.7,7.3,12.6,7.3v3.7H0.9v-3.7c7.5,0,10-0.7,10-7.1V12.2c0-6.4-2.5-7.1-10-7.1V1.4h63.4
	l0.3,22.6h-3.1C59.9,7,55.7,5.4,39.9,5.4H26V39h11.2c10.7,0,11.4-1.7,12.2-10.2h3.1v24.6h-3.1c-0.8-8.5-1.5-10-12.2-10H26v29.2
	L26.2,72.6L26.2,72.6z M72.5,83.6v-3.7c7.5,0,10-0.7,10-7.1V12.2c0-6.4-2.5-7.1-10-7.1V1.4h35.3v3.7c-7.5,0-10,0.7-10,7.1v60.6
	c0,6.4,2.5,7.1,10,7.1v3.7L72.5,83.6L72.5,83.6z M187.9,85l-56.3-69.7v57.2c0,6.6,4.6,7.6,12.4,7.6v3.7h-29.9v-3.7
	c7.8,0,12-1,12-7.6V9c-3.6-3.7-6.1-3.9-12-3.9V1.4h26.5l43.1,55.5V12.6c0-6.6-4.6-7.6-12.4-7.6V1.4h30v3.7c-7.8,0-12,1-12,7.6V85
	L187.9,85L187.9,85z M228.1,83.6h-29.7v-3.7c7.8,0,11.4-1,13.9-7.8l26.8-71.6h7.5l28.8,72.1c2.5,6.4,3.7,7.1,9.7,7.1v3.7h-34.4v-3.7
	c10.5,0,11.5-0.8,9-7.1l-8.5-21.9h-25.8l-7.6,21.2c-2.4,6.4,1.4,7.8,10.5,7.8v3.9H228.1L228.1,83.6z M226.9,46.5h22.4L237.6,17
	L226.9,46.5z M362.4,85l-56.2-69.7v57.2c0,6.6,4.6,7.6,12.4,7.6v3.7h-29.2v-3.7c7.1,0,11.4-1,11.4-7.6V9.2
	c-4.1-3.7-7.1-4.1-13.9-4.1V1.4h28.2l43.1,55.5V12.6c0-6.6-4.6-7.6-12.4-7.6V1.4h29.9v3.7c-7.8,0-12,1-12,7.6V85L362.4,85L362.4,85z
	 M445.7,1.2h2l1.2,24.6l-3.1,0.2c-2-14.1-9.5-21.5-23.2-21.5c-15.3,0-26.8,13.1-26.8,33.1c0,25.6,16.1,40.2,33.1,40.2
	c7.3,0,13.9-2,20.4-9l2.4,2.4c-5.3,7.5-15.6,13.7-29.5,13.7c-20.7,0-41.7-15.6-41.7-41.7c0-25.3,19.2-43.1,42.4-43.1
	c11,0,16.8,4.8,19.8,4.8C444,4.8,445,3.6,445.7,1.2L445.7,1.2z M458.4,83.6v-3.7c7.5,0,10-0.7,10-7.1V12.2c0-6.4-2.5-7.1-10-7.1V1.4
	h35.3v3.7c-7.5,0-10,0.7-10,7.1v60.6c0,6.4,2.5,7.1,10,7.1v3.7L458.4,83.6L458.4,83.6z M527,83.6h-27.7v-3.7c6.1,0,9.3-1,11.9-7.8
	L538,0.5h7.5l28.8,72.1c2.5,6.4,3.7,7.1,9.7,7.1v3.7h-34.4v-3.7c10.5,0,11.5-0.8,9-7.1L550,50.7h-25.8l-7.6,21.2
	c-2.4,6.4,1.4,7.8,10.5,7.8v3.9L527,83.6L527,83.6z M525.8,46.5h22.4L536.6,17L525.8,46.5z M589.7,83.6v-3.7c7.5,0,10-0.7,10-7.1
	V12.2c0-6.4-2.5-7.1-10-7.1V1.4h35.1v3.7c-7.5,0-9.8,0.7-9.8,7.1v61.1c0,5.4,2.7,6.1,7.1,6.1h4.2c15.9,0,21-2.4,25.4-20.5l3.1,0.3
	l-2.5,24.3h-62.6L589.7,83.6L589.7,83.6z M760.8,1.4l0.3,23.9H758c-1.7-17.6-5.9-19.8-21.7-19.8h-5.1v67.2c0,6.4,2.4,7.3,12.6,7.3
	v3.7h-40.4v-3.7c10.2,0,12.7-1,12.7-7.3V5.4H711c-15.8,0-20,2.2-21.7,19.8h-3.1l0.3-23.9L760.8,1.4L760.8,1.4z M768.7,83.6v-3.7
	c7.5,0,10-0.7,10-7.1V12.2c0-6.4-2.5-7.1-10-7.1V1.4H804v3.7c-7.5,0-10,0.7-10,7.1v60.6c0,6.4,2.5,7.1,10,7.1v3.7H768.7z M910.2,1.4
	v3.7c-7.5,0-10.7,0.3-10,7l6.4,61.1c0.7,6.3,3.1,7,10.5,7v3.7H882v-3.7c7.3,0,9.8-0.7,9.3-7L884.8,9l-26,76.2h-1L832.3,8.8
	l-6.1,64.1c-0.7,6.4,3.7,7.1,11.2,7.1v3.7h-27.5v-3.7c7.5,0,10-1.2,10.5-7.1l6.4-61.1c0.7-6.4-2.5-7-10-7V1.4h28.8L863,57.5
	l18.7-56.2L910.2,1.4L910.2,1.4z M975.9,53.4h-3.1c-0.8-8.5-1.5-10-12.2-10H948v29.9c0,5.4,2.7,6.1,7.1,6.1h6.8
	c15.9,0,21-2.4,25.4-20.5l3.1,0.3l-2.9,24.3h-64.8v-3.7c7.5,0,10-0.7,10-7.1V12.2c0-6.4-2.5-7.1-10-7.1V1.4H985l0.3,20.5h-3.1
	c-1.9-14.6-5.6-16.3-21.9-16.3h-12.2V39h12.6c10.7,0,11.4-1.7,12.2-10.2h3.1v24.6L975.9,53.4L975.9,53.4z M1041.3,66.7
	c0-7.5-4.8-11.2-12.9-15.8l-13.1-6.8c-9.8-5.3-15.6-11-15.6-21.4c0-12.9,11-22.7,25.4-22.7c9.8,0,14.9,4.8,17.8,4.8
	c1.9,0,2.7-1.2,3.6-3.6h2.4l1.2,23.1l-3.1,0.2c-1.7-11.2-9.7-19.9-20.9-19.9c-8.5,0-14.1,5.1-14.1,12.2c0,7.8,5.9,11,12.6,14.6
	l11.2,5.9c10.5,5.8,18,11.5,18,22.6c0,14.6-12.6,24.9-28.2,24.9c-11,0-16.5-5.3-19.3-5.3c-1.9,0-2.9,1.7-3.7,4.2h-2.4l-1.7-24.4
	l3.1-0.3c2.4,15.3,12.9,21.5,23.4,21.5C1033.9,80.4,1041.3,76.5,1041.3,66.7L1041.3,66.7z"/>
</svg>
