<?xml version="1.0" encoding="utf-8"?>
<!-- Generator: Adobe Illustrator 26.5.0, SVG Export Plug-In . SVG Version: 6.00 Build 0)  -->
<svg version="1.1" id="Layer_1" xmlns="http://www.w3.org/2000/svg" xmlns:xlink="http://www.w3.org/1999/xlink" x="0px" y="0px"
	 viewBox="0 0 1000 207" style="enable-background:new 0 0 1000 207;" xml:space="preserve">
<style type="text/css">
	.st0{fill:#FFFFFF;}
</style>
<path class="st0" d="M46.4,87.9c0,0.3,0.1,0.7,0.2,0.9c0.1,0.1,0.2,0.4,0.2,0.5c0,0.2,0.1,0.3,0.2,0.3c0.2,0,0.1-0.1-0.1-0.6
	c-0.1-0.2-0.2-0.6-0.2-0.8C46.6,87.4,46.4,87.2,46.4,87.9 M44.9,66.3c-0.2,0-0.4,0-0.4,0.1c0,0.1,0.1,0.1,0.3,0.1
	c0.2,0,0.4-0.1,0.4-0.1C45.3,66.4,45.1,66.3,44.9,66.3 M45.1,57.6c0.3,0,0.3-0.3-0.1-0.5c-0.3-0.2-0.4-0.2-0.4-0.1
	C44.6,57.3,44.9,57.7,45.1,57.6 M46.2,57.3c0-0.1,0-0.2-0.1-0.4c-0.1-0.2-0.2-0.2-0.2-0.1c0,0.1,0,0.1-0.1,0.1
	c-0.2-0.1-0.1,0.1,0.1,0.4C46.1,57.3,46.2,57.3,46.2,57.3 M54.3,65.1c0.1-0.2,0-0.3-0.1-0.4c-0.1-0.2-0.1-0.2-0.1-0.4
	c0-0.2,0-0.2-0.2-0.2c-0.3,0-0.6,0.4-0.5,0.9c0.1,0.3,0.1,0.3,0.6,0.5c0.2,0.1,0.3,0.1,0.3,0C54.3,65.3,54.3,65.2,54.3,65.1
	 M47.3,85c0.1-0.1,0.1-0.2,0.1-0.3c0,0-0.1,0-0.2,0.1c-0.1,0.1-0.1,0.2-0.1,0.3C47.1,85.2,47.2,85.2,47.3,85 M52.8,67.2
	c0-0.1,0-0.1-0.1-0.1c-0.1,0-0.1-0.1-0.2-0.2c0-0.1,0-0.2,0.1-0.2c0.1,0,0.2,0,0.2,0c0.1-0.1,0.1-0.1-0.1-0.4
	c-0.2-0.3-0.3-0.3-0.4-0.1c-0.1,0.1-0.1,0.1-0.1-0.1c0-0.2,0-0.3-0.1-0.3c0,0-0.2-0.2-0.5-0.5c-0.2-0.3-0.3-0.5-0.3-0.5
	c0.1,0,0.1-0.1,0.2-0.2c0-0.1,0.1-0.2,0.2-0.1c0.2,0,0.2-0.1,0.1-0.5c-0.1-0.4-0.6-0.4-1,0c-0.5,0.4-0.6,0.7-0.3,1.1
	c0.1,0.2,0.2,0.3,0.2,0.4c0,0.1,0.2,0.3,0.4,0.7c0.2,0.2,0.2,0.3,0.4,0.5c0,0.2,0,0.3-0.1,0.4c0,0.2,0,0.5,0,0.7
	c0.2,0.4,1.1,0.9,1.4,0.6c0.1-0.1,0-0.9-0.2-1C52.8,67.4,52.7,67.3,52.8,67.2 M46.7,67.3c0,0-0.1,0.1,0,0.1c0,0.1,0.1,0.1,0.1,0.1
	c0,0,0-0.1,0-0.1C46.8,67.3,46.7,67.3,46.7,67.3 M47.1,58.5c0-0.1-0.1-0.2-0.2-0.3c-0.1-0.1-0.2-0.1-0.1,0
	C46.9,58.6,47.1,58.8,47.1,58.5 M50.1,60.3c0.1-0.1,0.1-0.2,0.1-0.2C50.2,60,50.1,60,50.1,60.3c-0.1,0.2,0,0.6,0.1,0.5
	c0,0,0-0.1-0.1-0.2C50,60.5,50,60.4,50.1,60.3 M50.5,67.8c0,0,0,0.1,0.1,0.2c0.1,0.1,0.1,0.2,0.2,0.2c0.1,0,0-0.1-0.1-0.2
	C50.6,67.9,50.5,67.8,50.5,67.8 M51.5,58.7c0,0,0.1-0.1,0-0.1c0-0.1,0-0.1-0.1-0.1c0,0,0,0,0,0.1C51.4,58.6,51.4,58.7,51.5,58.7
	 M49.7,67.5C49.6,67.5,49.6,67.5,49.7,67.5c0,0.1,0.1,0.1,0.1,0.1C49.9,67.5,49.8,67.5,49.7,67.5 M47.8,64.8
	c-0.2-0.1-0.4-0.3-0.4-0.4c0-0.1,0-0.1,0.1,0c0.1,0.1,0.2-0.3,0.1-0.4c0,0,0-0.1,0.2-0.2c0.1-0.1,0.1-0.1,0.2-0.2
	c-0.1,0-0.1,0-0.2,0c-0.1,0-0.3,0-0.4,0.1c-0.1,0.1-0.3,0.2-0.5,0.2c-0.3,0.1-0.3,0.2-0.2,0.3c0.1,0.1,0.3,0.1,0.4,0.1
	c0.1,0,0.2,0,0.2,0.1c0,0.1-0.1,0.1-0.2,0.1c-0.1,0-0.2,0.1-0.3,0.1c-0.1,0.1-0.2,0.1-0.4-0.1c-0.2-0.3-0.2-0.3-0.1-0.4
	c0.1-0.1,0.1-0.1-0.1-0.1c-0.2,0-0.3-0.1-0.3-0.1c0-0.4-0.6,0.1-0.7,0.6c0,0.1-0.1,0.2-0.1,0.1c-0.1-0.1-0.4,1.1-0.3,1.3
	c0.1,0.4,1,0.5,1.5,0.2c0.3-0.2,0.7-0.2,1.1,0.1c0.4,0.3,1.4,0.4,1.6,0.2C49.4,65.7,48.2,65,47.8,64.8 M62.9,55.7
	C62.9,55.7,62.9,55.6,62.9,55.7c-0.1-0.2-0.1-0.2-0.1-0.2c0,0,0,0,0,0.1C62.8,55.6,62.8,55.7,62.9,55.7 M62,62.8c0-0.1,0,0,0,0.2
	c0,0.1,0.1,0.2,0.1,0.1C62.1,63,62.1,62.9,62,62.8 M60.6,63c0,0,0,0,0,0.1c0,0.1,0.1,0.1,0.1,0.1c0,0,0-0.1,0-0.1
	C60.7,63,60.7,63,60.6,63 M75.3,87.1C75.3,87.1,75.3,87.1,75.3,87.1C75.3,87.1,75.3,87.1,75.3,87.1c-0.1,0.1-0.1,0.1-0.1,0.1
	C75.2,87.3,75.3,87.2,75.3,87.1 M75.1,87.5c0,0,0,0-0.1,0.1C75,87.8,75.1,87.8,75.1,87.5C75.1,87.5,75.1,87.5,75.1,87.5 M74.8,85.2
	c0,0.1,0,0.1,0,0.1C74.8,85.3,74.8,85.3,74.8,85.2C74.9,85.1,74.8,85.1,74.8,85.2 M74.8,85.4C74.8,85.4,74.8,85.4,74.8,85.4
	C74.7,85.4,74.7,85.4,74.8,85.4C74.7,85.5,74.7,85.5,74.8,85.4C74.7,85.5,74.8,85.5,74.8,85.4 M74.5,84.5
	C74.5,84.4,74.5,84.3,74.5,84.5c-0.1,0.1,0,0.3,0,0.3C74.5,84.7,74.5,84.6,74.5,84.5 M74.4,83.9C74.4,83.9,74.4,83.9,74.4,83.9
	c0,0.1,0,0.2,0,0.2c0,0,0,0,0,0C74.4,84,74.4,83.9,74.4,83.9 M74.2,84.3c-0.1,0.1-0.1,0.2-0.2,0.3c-0.1,0-0.1,0.1-0.1,0.1
	c0,0,0,0,0.1,0.1c0,0,0.1,0.1,0.1,0c0.1-0.1,0.2-0.5,0.3-0.6C74.3,84,74.3,84.1,74.2,84.3 M73.8,89.3C73.8,89,73.7,89,73.8,89.3
	c-0.1,0.2,0,0.3,0,0.3C73.8,89.6,73.8,89.5,73.8,89.3 M73.6,86.1c0,0,0.1,0,0.1,0.1c0,0,0,0,0-0.2c0-0.1,0-0.2-0.1-0.2
	c0,0,0,0,0-0.1c0-0.1,0-0.2,0-0.3c0-0.2,0-0.4,0.1-0.5c0,0,0-0.1,0-0.2c-0.1-0.1-0.1-0.2-0.1-0.2c0-0.2-0.1-0.4-0.3-0.6
	c-0.1-0.1-0.3-0.2-0.3-0.3c0-0.1-0.1,0-0.3,0.3c-0.2,0.4-0.2,0.4-0.2,0.2c0-0.1,0-0.3,0-0.4c0-0.1,0-0.3,0-0.3
	c0-0.1-0.2-0.1-0.3,0.1c-0.1,0.1-0.1,0.1-0.1,0.2c0,0,0,0,0.1,0.1c0,0,0.1,0.1,0.1,0.2c0,0.1,0,0.1,0.1,0.1c0.1,0,0.1,0,0,0.1
	c-0.1,0-0.1,0.1-0.1,0.1c0,0,0,0.1,0,0.2c0,0.1,0,0.1,0,0.1c0,0,0-0.1,0.1-0.1c0-0.1,0.1,0,0.2,0.1c0.1,0.1,0.2,0.2,0.2,0.2
	c0,0,0.1,0.5,0.1,0.7c0,0.1,0,0.1-0.1,0.1c0,0-0.1,0.1-0.1,0.2c0,0.1,0,0.1,0.1,0.1c0.1-0.1,0.1-0.1,0.2,0.1c0,0.2,0.3,0.1,0.3-0.1
	c0-0.1,0.1-0.2,0.1-0.3c0.1-0.2,0.2-0.1,0.2,0.3C73.5,86,73.6,86.1,73.6,86.1 M72.3,85.4c0.1-0.2,0.1-0.4,0.1-0.4c0,0,0,0.1-0.1,0.1
	C72.3,85.2,72.3,85.3,72.3,85.4C72.2,85.6,72.2,85.6,72.3,85.4 M72,87.8c0,0,0,0-0.1,0.1c0,0.1,0,0.1,0,0.1C71.9,88,71.9,88,72,87.8
	C72,87.9,72,87.8,72,87.8 M72.8,87.1c0.1-0.5,0.1-0.6,0-0.4c-0.1,0.1-0.2,0.6-0.4,1.3c-0.1,0.3-0.2,0.6-0.3,0.8
	C72.1,89.1,72,89.1,72,89c0,0,0-0.2-0.1-0.3c-0.2-0.3-0.2-0.4-0.1-0.7c0.1-0.2,0.1-0.3,0.2-0.4c0,0,0.1-0.1,0.1-0.2
	c0-0.1,0-0.1-0.1-0.1c-0.1,0-0.2,0-0.2-0.1c-0.1-0.1-0.2-0.1-0.1,0c0,0.1-0.1,0.3-0.1,0.3c-0.1,0-0.2,0.2-0.2,0.3
	c0,0.1-0.1,0.2-0.1,0.3C71,88.2,71,88.3,71,88.4c0,0.1-0.1,0.2-0.1,0.2c-0.1,0.1-0.1,0-0.1,0c0-0.1,0-0.2,0-0.2c0-0.1-0.2,0-0.2,0.2
	c0,0.1,0,0.1-0.1,0.1c-0.1,0-0.3,0.4-0.3,0.5c0,0.1-0.1,0.1-0.1,0.1c-0.1,0-0.1,0.1-0.1,0.2c0,0.1,0,0.1-0.1,0.2c0,0,0,0,0-0.1
	c0-0.2-0.1,0.1-0.2,0.3c-0.1,0.2-0.3,0.6-0.4,0.7c0,0.1-0.3,0.2-0.5,0.4c-0.2,0.2-0.5,0.4-0.5,0.5c-0.1,0.1-0.2,0.2-0.2,0.2
	c0,0-0.1,0.1-0.1,0.1c0,0.1-0.1,0.1-0.1,0.1c-0.1-0.1-0.4,0.9-0.4,1.2c0,0.2,0,0.2-0.1,0.3c-0.1,0.1-0.1,0.2-0.2,0.6
	c0,0.3-0.1,0.6-0.2,0.8c0,0.1-0.1,0.3,0,0.3c0,0.1-0.2,0.7-0.3,0.8c-0.1,0.1-0.2,0.2,0,0.3c0.1,0.2,0.2,0.1,0.5-0.2
	c0.2-0.2,0.4-0.3,0.6-0.4c0.2-0.1,0.3-0.1,0.4-0.3c0.1-0.3,0.4-0.5,1.1-0.9c0.1-0.1,0.3-0.1,0.3-0.1c0,0,0.1,0.1,0.1,0
	c0.1,0,0.1,0.5,0,0.7c-0.1,0.2,0,0.1,0.3-0.3c0.3-0.4,0.3-0.4,0.1,0.1c-0.2,0.4-0.2,0.5,0,0.2c0.1-0.2,0.1-0.1,0,0.2
	c-0.1,0.1-0.1,0.2,0,0.1c0.1-0.1,0.1,0,0,0.3c-0.1,0.3-0.1,0.4,0,0.4c0.1,0,0.1,0,0.1,0.1c0,0.1,0.1,0,0.2-0.1
	c0.1-0.2,0.1-0.2,0.1-0.1c0,0.1,0,0.1,0.2-0.1c0.1-0.2,0.3-0.3,0.3-0.3c0.1,0,0.1-0.1,0.2-0.2c0.1-0.3,0.7-1.5,0.9-1.7
	c0.1-0.1,0.2-0.3,0.2-0.5c0.1-0.2,0.2-0.4,0.2-0.6c0.1-0.2,0.2-0.4,0.2-0.6c0-0.1,0.1-0.4,0.1-0.5c0.1-0.2,0.1-0.4,0.1-0.6
	c0-0.2,0-0.4,0-0.4c0-0.1,0-0.1,0-0.2c0,0,0-0.2,0-0.4c0-0.2,0-0.4,0-0.5c0-0.1,0-0.3,0-0.4c0-0.2,0.1-0.3,0.1-0.4
	c0-0.1,0-0.3,0.1-0.4c0-0.2,0-0.3,0-0.3C72.8,87.7,72.8,87.6,72.8,87.1 M72.8,94.4C72.8,94.4,72.8,94.4,72.8,94.4
	c-0.1,0.1-0.2,0.1-0.1,0c0-0.1,0-0.1,0-0.1c0,0,0-0.1,0-0.2c0-0.2,0.1-0.3,0.1-0.4c0-0.1,0-0.1-0.1,0.1c0,0.1,0,0.2,0,0.2
	c0,0.1-0.1,0.5-0.2,0.7c-0.1,0.1-0.1,0.2-0.1,0.3c0,0-0.1,0.2-0.1,0.2c0,0.1,0,0.1-0.1,0.3c-0.1,0.1-0.1,0.2-0.1,0.2
	c0,0,0.4-0.6,0.4-0.8c0-0.1,0.1-0.1,0.1-0.2C72.6,94.9,72.8,94.6,72.8,94.4 M72,95.8C71.9,95.8,71.9,95.8,72,95.8
	c0-0.1-0.1,0-0.3,0.3c-0.1,0.3-0.3,0.6-0.5,0.8c-0.3,0.4-0.5,0.8-0.6,0.9c0,0.1,0,0.1,0.1,0.1c0.1,0,0.3-0.2,0.5-0.6
	c0.1-0.3,0.3-0.6,0.3-0.5c0,0,0,0,0-0.1c0-0.1,0.1-0.2,0.2-0.4C71.9,96,72,95.8,72,95.8 M70,96.8c-0.1,0-0.1,0.1-0.2,0.1
	c0,0.1-0.1,0.2-0.1,0.3c-0.1,0.4-0.1,0.5,0.1,0.3c0.1-0.1,0.1-0.1,0.1-0.1c0,0,0.1-0.1,0.1-0.2C70.2,96.7,70.2,96.7,70,96.8
	 M69.5,95.5C69.5,95.5,69.4,95.6,69.5,95.5C69.5,95.6,69.5,95.6,69.5,95.5C69.6,95.5,69.6,95.5,69.5,95.5 M67.4,62.5
	c0-0.1-0.1-0.1-0.1-0.1C67.3,62.4,67.3,62.5,67.4,62.5C67.4,62.6,67.4,62.6,67.4,62.5C67.4,62.6,67.4,62.6,67.4,62.5 M69.5,61.9
	c0-0.1,0-0.1-0.1-0.1C69.4,61.8,69.4,61.9,69.5,61.9C69.4,62,69.5,62,69.5,61.9C69.5,62,69.5,62,69.5,61.9 M42.7,58.3
	c0.1-0.1,0.1-0.1-0.1-0.1c-0.1,0-0.2,0-0.2,0.1C42.4,58.5,42.5,58.5,42.7,58.3 M41.4,58.8c0.1,0,0.1-0.1,0.1-0.1
	c0-0.1,0-0.1-0.1-0.1c-0.1,0-0.1,0.1-0.1,0.1C41.3,58.8,41.3,58.8,41.4,58.8 M39.3,59.7c0.1,0.1,0.3-0.1,0.3-0.3c0-0.1,0-0.1-0.3,0
	C39.2,59.5,39.1,59.6,39.3,59.7 M39,59.6c-0.1,0-0.1,0.1-0.1,0.1c0,0.1,0.1,0.1,0.1,0.1C39.1,59.6,39.1,59.6,39,59.6 M46.7,69.3
	c0.1,0,0.3-0.1,0.3-0.1c0-0.1-0.1-0.1-0.2-0.1c-0.1,0-0.3,0.1-0.3,0.1C46.5,69.2,46.6,69.3,46.7,69.3 M43.9,69c0.1,0,0.3,0,0.4,0
	c0.1,0,0-0.1-0.2-0.1C43.9,69,43.8,69,43.9,69 M39.7,68c0.2,0.1,0.4,0.2,0.4,0.2c0,0,0.1-0.1,0.1-0.3c0.1-0.3,0-0.3-0.4-0.3
	c-0.3,0-0.5,0.1-0.5,0.1C39.4,67.7,39.5,67.8,39.7,68 M38.2,66c0.1,0,0.1-0.1,0.1-0.3c0-0.3-0.1-0.3-0.2-0.2
	C38,65.6,38.1,66,38.2,66 M37.9,66.7c0,0.3,0,0.5,0,0.5c0.2,0,0.4-0.2,0.4-0.5c0-0.4,0-0.5-0.3-0.4C38,66.2,37.9,66.4,37.9,66.7
	 M36,66.9c0,0.1,0.1,0.1,0.1,0.1c0.1-0.1,0.1-0.2,0-0.2C36,66.8,36,66.9,36,66.9 M66.2,77.8c0.1,0.3,0.3,0.7,0.4,0.9
	c0.1,0.3,0.2,0.7,0.4,1.4c0.1,0.5,0.2,0.9,0.2,0.9c0.1,0,0.5,0.8,0.6,1.1c0.1,0.6,0.4,1.5,0.6,1.5c0.1,0,0.1,0,0.1-0.3
	c0-0.2,0-0.5,0-0.7c0.1-0.4-0.5-1-0.7-1.1c-0.1,0-0.2-0.1-0.2-0.3c0-0.1-0.1-0.4-0.2-0.5c-0.2-0.3-0.2-0.4-0.3-1.2
	c0-0.6,0-0.9,0.1-0.5c0,0.1,0.1,0.2,0.1,0.2c0,0,0.2,0.2,0.4,0.4c0.2,0.2,0.4,0.5,0.4,0.5c0.1,0,0.1,0.2,0.2,0.4
	c0,0.2,0.1,0.3,0.1,0.3c0.1,0,0.2-0.5,0.1-0.6c0-0.1,0-0.1,0.1-0.1c0,0,0.1-0.1,0.2-0.3c0.1-0.2,0.1-0.3-0.1-0.8
	c-0.2-0.6-0.3-0.8-0.8-1.6c-0.5-0.7-0.6-0.9-0.4-1.4c0.1-0.4,0.4-0.6,0.5-0.2c0,0.1,0.1,0.3,0.2,0.3c0.1,0.1,0.1,0.1,0,0.1
	c-0.2,0-0.2,0.5,0,0.6c0.1,0.1,0.2,0,0.2-0.3c0-0.2,0-0.3-0.1-0.4c-0.2-0.3-0.2-0.5,0-0.7c0.1-0.1,0.2-0.3,0.2-0.4
	c0-0.1,0-0.1,0-0.1c0.1,0.2,0.4,0,0.5-0.4c0.1-0.4,0.1-0.7,0.1-0.9c0-0.1,0-0.1,0-0.2c0,0,0-0.2,0-0.4c0-0.7-0.1-1.1-0.3-1.1
	c0,0-0.1,0-0.1,0c0-0.1,0-0.1,0.1-0.1c0.1-0.1,0-0.5-0.3-1c-0.3-0.5-0.4-0.7-0.5-0.8c-0.1-0.1,0-0.7,0.1-0.8
	c0.1-0.1,0.1-0.2-0.2-0.3c-0.1-0.1-0.2,0-0.2,0.1c0,0.2-0.1,0.1-0.2-0.1c0-0.1-0.1-0.2-0.2-0.2c-0.1-0.1-0.3-0.4-0.2-0.4
	c0,0,0.1-0.2,0.2-0.4c0.1-0.2,0.1-0.3,0.2-0.3c0.1,0.1,0.1,0.1,0.1,0.3c0,0.3,0.1,0.5,0.2,0.3c0-0.1,0.1-0.1,0.2-0.1
	c0.2,0.1,0.2,0.1,0.2,0.4c0.1,0.3,0.1,0.4,0.3,0.4c0.1,0,0.2,0.2,0.2,0.3c0,0.1,0.2,0.6,0.3,0.9c0,0,0.1,0,0.2-0.1
	c0.1-0.1,0.1-0.1,0-0.5c-0.1-0.3-0.2-0.5-0.5-0.9c-0.2-0.3-0.3-0.5-0.3-0.5c0.1-0.1,0.1-0.5,0.1-0.6c0-0.1,0-0.3,0-0.4
	c0-0.2,0.1-0.2,0.2-0.1c0.2,0.2,0.3,0,0.2-1.1c0-0.8-0.1-1-0.2-1.4c-0.1-0.3-0.2-0.5-0.2-0.6c-0.1-0.5-0.7-1.4-0.7-1
	c0,0.1-0.1,0.2-0.1,0c-0.1-0.2-0.1-0.3-0.1-0.1c0,0.1,0,0.1,0,0c-0.1-0.1-0.1-0.2-0.2-0.2c-0.1,0-0.1,0-0.1-0.1c0-0.1,0-0.1,0.1-0.2
	c0-0.1,0.1-0.3,0.1-0.4c0.1-0.9-0.3-1.1,0.2-0.8c0.1,0.1,0.2,0.1,0.2,0c0-0.1,0.3,0.1,0.4,0.2c0,0.1,0.1,0.1,0.2,0.1
	c0.1,0,0.2,0,0.2,0c0.1,0,0.1,0,0-0.1c-0.1-0.1-0.1-0.1-0.1-0.4c0-0.3,0-0.3,0.2-0.3c0.1,0.1,0.2,0.1,0.2,0.2
	c0.1,0.2,0.2,0.3,0.2,0.1c0-0.1,0-0.1,0.1-0.1c0,0,0,0,0-0.1c0-0.1-0.1-0.2,0-0.2c0.1,0.1,0.2,0.5,0.2,0.8c0,0.1,0,0.3,0,0.4
	c0,0.1,0,0.2,0,0.2c-0.1,0.1,0,0.5,0.2,0.9c0.1,0.2,0.3,0.6,0.4,0.9c0.2,0.3,0.3,0.6,0.3,0.7c0.1,0.2,0.1-0.2,0-0.4
	c0-0.1,0-0.2,0-0.2c0,0,0-0.1,0-0.2c0-0.1,0-0.2,0-0.2c0.1,0,0-0.1,0-0.2c-0.1-0.2-0.1-0.4,0-0.3c0,0,0,0,0,0c0-0.1-0.1-0.1-0.1-0.1
	c0,0-0.1-0.1-0.1-0.2c-0.1-0.1-0.1-0.2-0.1-0.2c-0.1,0-0.1-0.1-0.2-0.5c0-0.2,0-0.3,0-0.3c0,0,0.1,0,0.1,0c0,0,0,0,0.1,0.1
	c0,0.1,0.1,0.1,0.1,0c0-0.1,0.1-0.1,0.2,0.1c0,0.1,0.1,0.1,0.1,0c-0.8-1.2-1.6-2.3-2.4-3.4c0,0,0,0-0.1-0.1c0,0,0,0,0,0
	c0,0-0.1-0.1-0.1-0.1c0,0,0,0,0,0c0,0-0.1-0.1-0.1-0.2c0,0,0,0,0,0c-0.1-0.1-0.2-0.2-0.2-0.3c-0.1-0.1-0.2-0.2-0.4-0.2
	c-0.5-0.2-0.2-0.1-0.4-0.4c-0.2-0.2-0.6-0.4-0.5-0.2c0,0.1,0,0.1,0,0c-0.1-0.1-0.1-0.2-0.3-0.3c-0.1-0.1-0.3-0.1-0.3-0.2
	c0,0-0.1-0.1-0.2-0.1c-0.1,0-0.1,0,0,0.2c0.1,0.2,0.1,0.2,0,0.1c-0.1,0-0.1-0.1-0.1,0c0,0.1,0,0.1-0.1,0c-0.1-0.1-0.3-0.2-0.4-0.2
	c-0.2-0.1-0.3-0.1-0.3,0c0,0.1-0.1,0.1-0.5-0.3c-0.1-0.2-0.2-0.2-0.1-0.2c0.1,0-0.1-0.2-0.2-0.2c-0.1,0-0.1,0-0.1-0.1
	c0,0,0-0.1-0.1-0.1c-0.1-0.1-0.3-0.2-0.5-0.3c-0.3-0.1-0.3-0.1-0.3,0c0.1,0.1,0,0.1-0.2,0.1c-0.2,0-0.4-0.2-0.5-0.2
	c-0.1-0.1-0.4-0.2-0.6-0.3c-0.2-0.1-0.6-0.2-0.7-0.3c-0.2-0.1-0.3-0.1-0.2,0c0.1,0.1,0,0.1-0.1,0.1c-0.2,0-0.4-0.1-0.2-0.2
	c0.1,0,0.2-0.1,0.3-0.1c0.1,0,0.2-0.1,0.3-0.1c0.1-0.1,0.1-0.1,0-0.3c0,0-0.1-0.1-0.1-0.1c0,0-0.2-0.1-0.3-0.2
	c-0.1-0.1-0.3-0.2-0.4-0.2c-0.3-0.1-0.6-0.2-0.7-0.3c0-0.2-0.4-0.4-0.6-0.3c-0.1,0-0.1,0.1-0.1,0.1c0,0.1,0,0.1-0.1,0.1
	c-0.1,0-0.1,0-0.1,0c0,0.1-0.1,0.1-0.3,0c-0.6-0.2-1.6-0.1-1.7,0.1c0,0,0,0.1-0.1,0.1l0.2,0.1c0.1,0.1,0,0.1-0.4,0.1
	c-0.3,0-0.6,0-0.6,0c-0.1,0,0.3,0.5,0.4,0.6c0.2,0.1,0.2,0.1,0.1,0.1c0,0-0.2,0-0.4-0.1c-0.1-0.1-0.4-0.2-0.5-0.3
	c-0.2-0.1-0.2-0.1-0.1,0.1c0.2,0.2,0.2,0.2-0.1,0.1c-0.3-0.1-0.3,0,0,0.2c0.1,0.1,0.1,0.1,0,0.1c-0.2-0.1-0.2-0.1-0.3-0.3
	c0-0.1-0.1-0.3-0.2-0.3c0-0.1,0,0,0,0.1c0,0.1,0,0.2,0,0.2c-0.1,0-0.1,0-0.1,0.1c0,0.1,0,0.1,0.1,0.3c0.1,0.2,0.2,0.2,0.1,0.3
	c0,0.3,0.1,0.4,0.5,0.5c0.3,0.1,0.6,0.3,0.6,0.5c0,0.1,0,0.1-0.1,0c-0.1-0.2-0.3-0.4-0.5-0.4c-0.1,0-0.1,0.1,0,0.3
	c0.1,0.2,0.1,0.3-0.1,0.5c-0.2,0.2-0.7,0.2-0.8,0c-0.1-0.1,0-0.1,0.2,0c0.2,0.1,0.3,0,0.3-0.2c0.1-0.3,0.1-0.3-0.1-0.5
	c-0.1-0.1-0.2-0.3-0.3-0.6c-0.1-0.2-0.2-0.4-0.2-0.5c-0.1-0.1-0.1-0.1-0.1-0.3c0-0.2-0.1-0.4-0.3-0.4c-0.1,0-0.2-0.1-0.1-0.1
	c0-0.1,0-0.1-0.1-0.1c-0.1,0-0.1,0-0.1,0.1c0,0.1,0,0.1-0.1,0.1c-0.1,0-0.1,0.1-0.1,0.2c0,0.1-0.1,0.3-0.1,0.4
	c-0.1,0.1-0.1,0.2-0.1,0.2c0,0,0.1,0.1,0.1,0.2c0,0.1,0,0.2,0,0.2c0,0,0.1,0.1,0.3,0.3c0.5,0.4,0.4,0.5-0.2,0.2
	c-0.3-0.2-0.7-0.4-1-0.5c-0.3-0.1-0.6-0.2-0.7-0.2c-0.1-0.1-0.1,0,0.1,0.1c0.3,0.3,0.4,0.4,0.3,0.6c-0.1,0.1-0.1,0.1-0.2,0
	c-0.1-0.1-0.2-0.1-0.6-0.1c-0.4,0.1-0.6,0-0.6-0.1c0-0.1-0.1-0.1-0.2-0.1c-0.1,0-0.2,0.1-0.3,0.1c-0.4,0.1-0.8,0.3-0.8,0.4
	c0,0.2-0.3,0.2-0.5,0c-0.2-0.1-0.1-0.3,0-0.3c0.1,0,0.1-0.2,0-0.3c-0.2-0.1-0.6-0.1-0.5,0c0.1,0.1,0.1,0.2,0.1,0.3
	c0,0.1,0,0.2,0.1,0.3c0.2,0.2,0,0.4-0.2,0.3c-0.1-0.1-0.3,0-0.4,0.1c-0.3,0.2-0.3,0.2-0.2,0.4c0.1,0.2,0.1,0.2-0.2,0.1
	c-0.2,0-0.4-0.1-0.5-0.2c-0.1-0.1-0.2,0-0.2,0.1c0,0.1,0.1,0.2,0.2,0.2c0.2,0.1,0.2,0.3,0.1,0.3c-0.2,0-0.6-0.3-0.7-0.5
	c-0.1-0.1-0.1-0.3-0.1-0.4c0-0.1-0.1-0.2-0.2-0.3c-0.4-0.2-0.1-0.2,0.6,0c0.6,0.2,0.7,0.1,0.9,0c0.1-0.1,0.2-0.2,0.2-0.3
	c0-0.1-0.4-0.3-0.8-0.5c-0.6-0.3-0.8-0.4-1.8-0.6c-0.4-0.1-0.4-0.1-0.3-0.2c0.2-0.1,0.2-0.1-0.1-0.2C44,53,43.8,53,43.8,53
	c0,0-0.1,0-0.1-0.1c0-0.1-0.1-0.1-0.1-0.1c-0.1,0-0.2,0.1-0.3,0.1c-0.1,0-0.2,0.1-0.2,0.2C43,53.3,43,53.3,43,53.2
	c0,0,0-0.2,0.1-0.2c0.1-0.1,0.1-0.1-0.2,0c-0.1,0.1-0.3,0.2-0.3,0.2c0,0.1-0.1,0.1-0.2,0c-0.1,0-0.2,0-0.4,0.1
	c-0.1,0.1-0.2,0.1-0.3,0.1c-0.2-0.1-0.3-0.1-0.2,0c0,0.1,0,0.1-0.1,0.1c0,0-0.2,0-0.3,0c-0.1,0-0.2,0-0.1,0.1
	c0.2,0.2-0.1,0.3-0.3,0.1c-0.1-0.1-0.2-0.1-0.1,0c0,0.1,0,0.1-0.1,0.1c-0.1-0.1-0.2-0.1-0.1,0c0.1,0.1,0.2,0.1,0.2,0.1
	c0.3-0.1,0.1,0.2-0.3,0.5c-0.3,0.2-0.5,0.5-0.6,0.7c-0.1,0.2-0.2,0.4-0.3,0.4c-0.1,0-0.1,0.1-0.1,0.1c0,0.1,0,0.1-0.1,0.1
	c0,0-0.2,0.1-0.3,0.2C39,56,38.8,56,38.8,56c-0.1,0-0.1,0-0.1,0.1c0,0.1-0.1,0.2-0.1,0.2c-0.1,0-0.3,0.1-0.5,0.2
	c-0.4,0.2-0.5,0.6-0.3,0.9c0.1,0.1,0.1,0.2-0.1,0.3c-0.1,0.1-0.1,0.2,0.1,0.1c0.2-0.1,0.2-0.1,0,0.1c-0.2,0.2-0.1,0.3,0.2,0.4
	c0.2,0.1,0.4,0,0.6-0.2c0.2-0.1,0.4-0.3,0.4-0.4c0-0.1,0-0.1,0.1,0c0.1,0.1,0.1,0.2,0.1,0.3c0,0.1,0,0.2,0.1,0.2
	c0,0,0.1,0.1,0.1,0.2c0,0.1,0.1,0.3,0.1,0.4c0.1,0.1,0.1,0.3,0.1,0.3c0,0,0,0.2,0,0.3c0.1,0.2,0.4,0.2,0.4,0c0-0.1,0.1-0.1,0.2-0.1
	c0.4,0,0.5-0.2,0.5-0.6c0-0.3,0-0.4,0.2-0.5c0.1-0.1,0.3-0.2,0.4-0.3c0.1-0.1,0.1-0.2,0-0.3c-0.1-0.1-0.2-0.2-0.3-0.2
	c-0.1,0-0.1-0.1-0.1-0.2c0-0.4,0.2-0.7,0.6-1c0.4-0.2,0.6-0.4,0.5-0.5c-0.1-0.2,0.3-0.5,0.7-0.4c0.4,0.1,0.5,0.2,0.3,0.4
	c-0.8,0.7-0.9,0.8-0.9,1c0,0.1,0.1,0.3,0.1,0.5c0,0.4,0.4,0.6,1,0.5c0.3,0,0.6-0.1,0.7-0.1c0.2,0,0.5,0.1,0.4,0.3
	c0,0.1-0.3,0.1-0.6,0.1c-0.7,0-0.9,0.1-0.9,0.3c0,0.1,0.1,0.2,0.2,0.2c0.1,0,0.1,0.1,0.1,0.3c0,0.4-0.1,0.4-0.4,0.2
	c-0.3-0.3-0.6-0.1-0.6,0.6c0,0.3,0,0.4-0.2,0.4c-0.1,0-0.2,0-0.2,0.1c0,0.2-0.4,0.2-0.5,0c-0.1-0.1-0.3,0-0.7,0.1
	c-0.3,0.1-0.7,0.2-0.7,0.1c-0.1,0-0.3-0.1-0.6-0.1c-0.5,0-0.8-0.2-0.7-0.5c0-0.1,0.1-0.2,0.2-0.3c0.1-0.1,0.2-0.1,0.1-0.3
	C39,59,39,58.9,39,58.8c0.1-0.2-0.2-0.2-0.3,0.1C38.6,59,38.5,59,38.5,59c-0.1-0.1-0.1,0-0.1,0.4c0.1,0.9,0,1-0.2,1
	c-0.6,0-0.7,0.1-0.8,0.3c0,0.2-0.1,0.2-0.1,0.1c0-0.1-0.1-0.1-0.3,0.2c-0.1,0.2-0.4,0.4-0.5,0.5c-0.1,0.1-0.3,0.2-0.3,0.3
	c0,0.1-0.2,0.3-0.4,0.4c-0.2,0.2-0.3,0.2-0.5,0.1c-0.1-0.1-0.2-0.1-0.2,0.1c0,0.2-0.1,0.3-0.3,0.3c-0.5,0-0.6,0-0.6,0.2
	c0,0.1,0,0.2,0.1,0.2c0.4,0,0.8,0.6,0.7,1.1c0,0.2-0.1,0.5-0.2,0.6c-0.1,0.3-0.2,0.3-1,0.3c-0.4,0-0.9-0.1-0.9-0.1
	c-0.1,0-0.2,0-0.3,0.1c-0.2,0.1-0.2,0.2-0.3,0.7c0,0.3-0.1,0.8-0.2,1c-0.1,0.3-0.2,0.5-0.1,0.6c0,0.1,0.1,0.3,0,0.5
	c0,0.3,0,0.3,0.3,0.2c0.2-0.1,0.3,0,0.5,0.2c0.1,0.2,0.2,0.2,0.4,0.1c0.1-0.1,0.4-0.1,0.6-0.1c0.2,0,0.4-0.1,0.4-0.2
	c0-0.1,0.1-0.2,0.2-0.2c0.2,0,0.5-0.5,0.5-0.8c0-0.3,0.5-0.8,0.9-1c0.2-0.1,0.3-0.2,0.4-0.5c0.1-0.4,0.4-0.6,0.7-0.4
	c0.2,0.1,0.3,0.1,0.7-0.2c0.3-0.2,0.5-0.3,0.6-0.3c0.1,0,0.3,0.2,0.5,0.6c0.2,0.3,0.7,0.8,1.1,1c0.7,0.4,0.8,0.7,0.7,1.2
	c-0.1,0.3-0.1,0.3,0.2-0.1c0.2-0.3,0.3-0.4,0.1-0.5c-0.1-0.1-0.1-0.2,0-0.3c0.1-0.1,0.2-0.1,0.3,0c0.1,0.1,0.2,0.1,0.3,0.1
	c0.1-0.1-0.6-0.6-0.8-0.6c-0.1,0-0.1-0.1-0.1-0.1c0-0.1-0.1-0.1-0.2-0.1c-0.1,0-0.3-0.2-0.5-0.5c-0.2-0.3-0.4-0.5-0.5-0.5
	c-0.1,0-0.1-0.1-0.1-0.3c0-0.4,0.4-0.6,0.5-0.3c0,0.1,0.1,0.2,0.2,0.1c0.1,0,0.2,0.1,0.3,0.3c0.1,0.2,0.3,0.4,0.4,0.5
	c0.1,0.1,0.4,0.2,0.7,0.4c0.3,0.2,0.4,0.4,0.4,0.7c0,0.2,0.1,0.5,0.4,0.9c0.2,0.3,0.4,0.5,0.3,0.6c-0.1,0.1,0.3,0.6,0.5,0.6
	c0.1,0,0.1-0.1,0.1-0.2c0-0.1,0-0.2,0.2-0.3c0.4-0.2,0.2-0.5-0.2-0.4c-0.1,0-0.1-0.1,0-0.2c0-0.1,0-0.2,0-0.3
	c-0.2-0.1-0.1-0.4,0.1-0.3c0.1,0,0.2,0,0.3-0.1c0.2-0.4,0.9-0.1,0.8,0.3c0,0.1,0,0.2,0.1,0.2c0.1,0,0.1,0.1,0.1,0.3
	c0,0.2,0,0.3,0.1,0.3c0.1,0,0.1,0.1,0.1,0.2c0,0.1,0.1,0.3,0.3,0.4c0.2,0.1,0.4,0.2,0.5,0.3c0.2,0.1,0.3,0.1,0.4-0.1
	c0.1-0.2,0.2-0.2,0.4,0c0.3,0.2,0.7,0.3,0.8,0.1c0-0.1,0.2-0.1,0.4-0.2c0.1,0,0.2,0,0.3,0c0,0.2,0,0.3,0,0.5c0,0.3-0.1,0.9-0.1,1.3
	c-0.2,0.9-0.5,1.1-1,0.8c-0.2-0.2-0.3-0.2-0.6,0c-0.4,0.2-0.6,0.2-1.1,0c-0.2-0.1-0.6-0.2-1-0.3c-0.3-0.1-0.6-0.2-0.6-0.3
	c0-0.1-0.1-0.1-0.3-0.2c-0.4-0.1-0.9,0.2-0.8,0.5c0,0.1-0.1,0.4-0.1,0.5c-0.1,0.2-0.2,0.2-0.6-0.1c-0.3-0.1-0.6-0.2-0.7-0.2
	c-0.1,0-0.3-0.1-0.4-0.2c-0.1-0.2-0.8-0.6-1-0.5c-0.1,0.1-1-0.4-1-0.5c0,0,0.1-0.2,0.2-0.3c0.2-0.2,0.2-0.3,0.1-0.5
	c-0.1-0.2-0.1-0.3,0-0.4c0.1-0.2,0.1-0.2,0-0.1c-0.1,0-0.2,0-0.2-0.1c0-0.1-0.1-0.1-0.4-0.1c-0.2,0-0.9,0.1-1.5,0.2
	c-0.8,0.1-1.8,0.2-2.3,0.8c-0.1,0.1-1.1,0.1-1.2-0.1c-0.1-0.2-0.2-0.1-0.4,0.3c-0.1,0.2-0.3,0.5-0.6,0.6c-0.4,0.3-0.9,1-0.9,1.4
	c0,0.3-0.3,0.8-0.9,1.1c-0.4,0.2-1.1,1.2-1.2,1.4c0,0.1-0.1,0.3-0.2,0.4c-0.1,0.2-0.4,0.5-0.5,0.9c-0.3,0.5-0.3,0.6-0.2,0.8
	c0.1,0.2,0.1,0.5,0,1.3c-0.1,0.5-0.4,1.4-0.5,1.4c-0.1,0-0.1,0.1,0,0.4c0.1,0.2,0.1,0.5,0,0.7c-0.1,0.3,0,0.4,0.1,0.4
	c0.1,0,0.2,0.1,0.2,0.2c0,0.1,0.1,0.4,0.3,0.7c0.2,0.3,0.3,0.7,0.3,0.8c0,0.6,0.9,1.2,1.4,1.7c0.3,0.2,0.3,0.3,1.4,0
	c0.3-0.1,0.7-0.1,1,0c0.4,0.1,0.6,0.1,1.1-0.2c0.6-0.3,1.5-0.7,2.1-0.3c0.2,0.1,0.3,0.3,0.3,0.4c0,0.3,0.2,0.5,0.8,0.4
	c0.5-0.1,0.6,0,0.9,0.3c0.2,0.2,0.3,0.4,0.3,0.5c0,0.1-0.1,0.5-0.1,0.8c0,0.4-0.1,0.7-0.1,0.8c-0.1,0.2,0.1,0.6,0.8,1.3
	c0.6,0.7,1.1,1.5,1.3,2.4c0,0.2,0.1,0.6,0.2,0.9c0.1,0.4,0.1,0.5-0.1,0.7c-0.3,0.3-0.6,1.3-0.5,1.7c0.1,0.6,0.6,1.3,1,1.9
	c0.1,0.2,0.3,0.6,0.3,1c0.1,0.8,0.3,1.3,0.6,1.5c0.3,0.2,0.9,1.4,0.8,1.5c-0.1,0.2,0.2,0.6,0.4,0.7c0.2,0.1,0.3,0.1,0.5,0
	c0.1-0.1,0.5-0.2,0.8-0.2c1-0.1,1.9-0.4,2.5-1.3c0.2-0.2,0.5-0.6,0.6-0.7c0.2-0.2,0.3-0.4,0.4-0.8c0.1-0.5,0.1-0.5,0.6-0.7
	c0.5-0.2,0.5-0.3,0.5-0.7c0-0.2,0-0.6,0-0.9c-0.1-0.4-0.1-0.4,0.2-0.6c0.1-0.1,0.4-0.3,0.5-0.5c0.1-0.2,0.4-0.4,0.6-0.5
	c0.2-0.1,0.5-0.3,0.6-0.4c0.3-0.3,0.3-0.4,0.4-1.3c0.1-0.8,0.1-1.1-0.1-1.1c-0.1-0.1-0.1-0.4-0.1-0.7c0-0.3,0-0.7-0.1-0.8
	c-0.1-0.2,0-0.4,0.3-0.9c0.2-0.4,0.5-0.8,0.7-1c0.2-0.2,0.6-0.7,0.9-1.1c0.3-0.4,0.7-0.8,0.9-0.9c0.7-0.6,1.1-1.3,1.3-2.3
	c0.1-0.4,0.2-0.9,0.2-1c0-0.1,0-0.4,0-0.8c0-0.6-0.1-0.6-0.2-0.5c-0.1,0.1-0.6,0.2-1.1,0.4c-0.4,0.1-0.6,0.2-1,0.3
	c-0.1-0.1-0.2-0.2-0.3-0.3c-0.2-0.2-0.3-0.4-0.2-0.4c0.1-0.1-0.6-0.9-1.2-1.4c-0.3-0.2-0.5-0.5-0.6-0.8c-0.1-0.3-0.3-0.7-0.5-0.8
	c-0.2-0.2-0.3-0.5-0.4-0.9c-0.1-0.4-0.2-0.8-0.4-1c-0.2-0.2-0.3-0.4-0.3-0.6c0-0.1-0.2-0.4-0.3-0.7c-0.2-0.3-0.4-0.7-0.5-0.9
	c-0.1-0.2-0.3-0.6-0.5-0.9c-0.1-0.2-0.2-0.4-0.2-0.4c0,0,0.2,0.2,0.3,0.4c0.3,0.5,0.5,0.6,0.5,0.2c0-0.2,0-0.2,0.1-0.1
	c0.1,0.1,0.3,0.5,0.6,0.9c0.3,0.4,0.5,0.8,0.5,0.8c0,0.1,0.1,0.2,0.3,0.4c0.3,0.2,0.6,0.7,0.6,1.2c0,0.2,0.2,0.4,0.4,0.7
	c0.2,0.2,0.4,0.4,0.4,0.5c0,0.1,0.2,0.4,0.4,0.7c0.2,0.3,0.4,0.7,0.4,0.8c0.1,0.5,0.4,1.5,0.6,1.6c0.1,0,0.2,0,0.4-0.1
	c0.1-0.1,0.3-0.2,0.4-0.2c0.1,0,0.2-0.1,0.3-0.1c0.1-0.1,0.2-0.1,0.3-0.1c0,0,0.2-0.1,0.3-0.2c0.1-0.1,0.4-0.3,0.6-0.4
	c0.2-0.1,0.4-0.3,0.5-0.5c0.1-0.2,0.3-0.4,0.5-0.4c0.2-0.1,0.3-0.2,0.3-0.3c0-0.1,0-0.2,0.1-0.2c0.1,0,0.2-0.1,0.1-0.1
	c0-0.1,0.1-0.2,0.2-0.3c0.1-0.1,0.2-0.2,0.1-0.2c-0.1-0.1,0-0.5,0.1-0.5c0.1,0,0.1-0.2,0.2-0.4c0-0.2,0.1-0.3,0.1-0.4
	c-0.1-0.1-0.1-0.2-0.2-0.3c-0.1-0.2-0.4-0.3-0.5-0.4c-0.3-0.1-0.4-0.3-0.6-0.8c0-0.1-0.1-0.2-0.1-0.4c-0.1,0.2-0.1,0.3-0.2,0.4
	c-0.4,0.7-1.1,0.7-1.2,0c0-0.4-0.2-0.5-0.2-0.1c0,0.3,0,0.3-0.2-0.2c-0.1-0.3-0.3-0.5-0.3-0.6c-0.1,0-0.3-0.3-0.4-0.6
	c-0.3-0.5-0.3-0.5-0.1-0.6c0.3-0.2,0.5-0.1,0.8,0.4c0.3,0.5,1,1.3,1.6,1.1c0.1-0.1,0.2-0.1,0.2-0.1c0,0,0.1,0,0-0.1
	c-0.1-0.3,0.1-0.2,0.3,0.2c0.1,0.2,0.2,0.3,0.2,0.4c0.7,0.3,1.7,0.4,2.4,0.2c0,0,0.2,0.1,0.4,0.4c0.5,0.6,0.9,0.9,0.9,0.8
	c0,0,0.1,0,0.1,0.1c0,0.1,0,0.1-0.1,0.1c-0.2,0-0.2,0,0.2,0.4c0.4,0.4,0.6,0.4,0.6-0.1c0-0.3,0-0.3,0.2,0.1c0.1,0.2,0.2,0.4,0.2,0.5
	c0.1,0.8,0.5,1.6,0.9,2.4c0.2,0.3,0.3,0.6,0.3,0.7c0,0.1,0.2,0.4,0.3,0.7c0.2,0.3,0.4,0.7,0.5,1c0.3,0.7,0.4,0.7,0.6,0.1
	c0.2-0.7,0.1-1.5-0.1-2.2c-0.1-0.5-0.1-0.6,0-0.7c0.1,0,0.1-0.1,0.1-0.2c0-0.1,0-0.1,0-0.1c0.1,0,0.3-0.4,0.4-1.1
	c0.1-0.2,0.2-0.4,0.2-0.4c0.1,0,0.2-0.3,0.1-0.5c0-0.1,0-0.2,0-0.2c0,0,0.2,0,0.3-0.1c0.1,0,0.2-0.1,0.3-0.1c0,0,0.1-0.1,0.1-0.2
	c-0.1-0.3,0.2-0.1,0.4,0.4c0.1,0.3,0.3,0.5,0.4,0.6c0.1,0.1,0.2,0.2,0.2,0.3c0,0.1,0,0.2,0.1,0.2c0.1,0,0.4,0.6,0.4,0.9
	c0,0.2,0,0.3,0.1,0.3c0.2,0.1,0.3,0.1,0.3-0.2c0-0.1,0-0.2,0.1-0.3C66.1,77.5,66.1,77.6,66.2,77.8 M63.4,81.2
	c-0.3-0.5-0.4-0.6-0.4-0.3c0,0.3,0.2,1.1,0.3,1.2c0.1,0.1,0.1,0.1,0.2,0C63.7,82,63.7,81.8,63.4,81.2 M58.6,109c0,0,0.1,0,0.1,0
	C58.7,108.9,58.7,108.9,58.6,109C58.6,108.9,58.6,109,58.6,109 M55.2,79.7c0,0.1,0.1,0.1,0.2,0.1c0.1-0.1,0.1-0.2-0.1-0.2
	C55.2,79.6,55.1,79.7,55.2,79.7 M54.7,94c0,0,0.1-0.1,0.1-0.1c0-0.1,0-0.1-0.1-0.1C54.7,93.8,54.7,93.9,54.7,94
	C54.7,94,54.7,94,54.7,94 M54.5,105.8c-0.1,0.2,0.1,0.1,0.3,0c0.1-0.1,0.1-0.1-0.1-0.1C54.6,105.6,54.5,105.7,54.5,105.8 M51.2,94.2
	c-0.2,0.3-0.3,0.4-0.3,0.9c0,0.7,0.2,0.9,0.6,0.8c0.2-0.1,0.4-0.1,0.4-0.2c0.5-0.7,0.9-1.9,1.2-2.8c0-0.1,0.1-0.2,0.1-0.3
	c0.1-0.1,0.1-0.2,0.1-0.4c0-0.2,0-0.2,0.1-0.2c0.1,0.1,0.1,0,0.1-0.4c0-0.4-0.1-1.1-0.2-1c0,0-0.1,0-0.1,0.1c0,0-0.1,0.2-0.1,0.3
	c0,0.1-0.1,0.3-0.2,0.4c-0.1,0.1-0.3,0.3-0.4,0.5c-0.1,0.1-0.3,0.3-0.5,0.4c-0.5,0.2-0.8,0.6-0.7,1.2C51.4,93.8,51.4,93.9,51.2,94.2
	 M37.3,115.7c0.1,0,0.1,0,0.1-0.1c0-0.1,0-0.1,0-0.1c0,0,0,0.1-0.1,0.1C37.2,115.6,37.2,115.7,37.3,115.7 M33.9,116.4
	C33.9,116.4,33.9,116.5,33.9,116.4C34,116.5,34,116.4,33.9,116.4C34,116.3,33.9,116.3,33.9,116.4C33.9,116.3,33.9,116.3,33.9,116.4
	 M60.9,111.4c-0.2,0.1-0.3,0.1-0.4,0.1c0,0-0.1,0-0.2,0c-0.1,0-0.1,0-0.1,0c0-0.1,0-0.1-0.1,0c0,0-0.1,0.1-0.2,0.1
	c-0.1,0-0.1,0-0.1,0c0,0,0,0-0.1,0c-0.2,0-0.3,0-0.3-0.1c0,0,0-0.1,0,0c-0.1,0-0.2,0.1-0.6,0.1c-0.2,0-0.3,0.1-0.4,0.1
	c-0.1,0,0,0,0-0.1c0.1-0.1,0.1-0.1,0.1-0.1c0,0-0.1,0.1-0.1,0.2c-0.1,0.1-0.1,0.2-0.4,0.2c-0.2,0.1-0.3,0.1-0.4,0.2
	c-0.2,0.2-0.3,0.2-0.3,0.1c0,0,0-0.1-0.1,0c-0.1,0.1-0.7,0.3-1.1,0.4c-0.2,0.1-0.5,0.1-0.5,0c0-0.1-0.4,0.1-0.5,0.2
	c-0.1,0.1-0.2,0.1-0.6,0.1c-0.4,0-0.5,0-0.7,0.1c-0.1,0.1-0.1,0.1-0.1,0.1c0,0,0,0,0,0c-0.1,0.1-0.2,0.2-0.3,0.2
	c-0.5,0.1-0.7,0.2-0.9,0.3c-0.1,0.1-0.2,0.1-0.3,0.1c-0.1,0-0.2,0.1-0.4,0.3c-0.2,0.1-0.5,0.3-0.7,0.4c-0.2,0.1-0.4,0.2-0.5,0.3
	c-0.1,0.1-0.1,0.1-0.1,0.1c0,0-0.1,0.1-0.2,0.2c-0.2,0.2-0.6,0.5-0.7,0.4c-0.1,0,0-0.3,0.2-0.3c0,0,0.1-0.1,0.2-0.2
	c0.1-0.1,0.1-0.1,0-0.1c-0.1,0.1-0.2,0-0.1-0.1c0,0,0.1-0.1,0.1-0.1c0.1,0,0.4-0.4,0.5-0.5c0,0-0.2-0.1-0.5,0c-0.8,0-1.5,0-1.5-0.1
	c0,0,0-0.1-0.1-0.1c-0.2-0.2-1,0.1-1.1,0.3c0,0.1-0.1,0.1-0.2,0.1c-0.1,0-0.2,0-0.2,0.1c0,0.1,0,0.1-0.2,0.1c-0.1,0-0.3,0-0.4,0.1
	c-0.1,0.1-0.3,0.1-0.4,0.1c-0.4,0.1-0.8,0.3-0.9,0.4c-0.1,0.1-0.4,0.2-0.4,0.1c0,0,0-0.1-0.1,0c-0.1,0-0.2,0-0.3-0.1
	c-0.1-0.1-0.2-0.2-0.3-0.1c-0.3,0.2-0.5,0.3-1.2,0.4c-0.5,0.1-0.9,0.1-1.2,0.1c-0.5-0.1-1.1-0.1-1.7,0c0,0.1-0.1,0.1-0.2,0
	c-0.2-0.1-1.4-0.1-1.6,0c-0.3,0.1-0.6,0.2-1.1,0.1c-0.3,0-0.6-0.1-0.5-0.1c0.1-0.1-0.2-0.1-0.3,0.1c-0.1,0.2-0.1,0.2-0.3,0
	c-0.1-0.1-0.1-0.1-0.3-0.1c-0.1,0.1-0.2,0.1-0.3,0c-0.1-0.1-0.1-0.1,0,0.1c0.1,0.1,0.1,0.1,0,0.2c-0.1,0-0.2,0.1-0.2,0.1
	c-0.1,0-0.1,0-0.1,0.1c0,0-0.1,0.1-0.2,0.1c-0.1,0-0.2,0.1-0.2,0.1c0,0.1,0,0.1,0.2,0.1c0.2,0,0.2,0-0.1,0.1
	c-0.2,0.1-0.4,0.2-0.4,0.2c0,0.1-0.1,0.1-0.4,0c-0.7-0.1-2.8-0.1-2.9,0.3c0,0,0.7,0.4,0.8,0.4c0,0,0.2,0,0.4,0c0.3,0,0.3,0,0.2,0.1
	c-0.1,0-0.1,0.1-0.1,0.1c0.1,0,0.1,0,0.2,0c0.1,0,0.2,0.1,0.2,0.1c0,0-0.1,0.1-0.1,0.1c2.1,0.4,4.3,0.6,6.5,0.6
	C47.3,118.5,54.8,115.9,60.9,111.4 M30.3,107.7c0,0-0.2-0.1-0.3-0.1c-0.2-0.1-0.2-0.1,0,0.1C30.2,107.8,30.4,107.9,30.3,107.7
	 M29.8,117c-0.1-0.1-0.1-0.2-0.1-0.2c0-0.2-0.6-0.4-1-0.4c-0.1,0-0.2,0.1-0.2,0.2c0,0.1-0.1,0.2-0.3,0.2c-0.1,0-0.1,0-0.2,0
	c0.5,0.2,1,0.3,1.5,0.4c0.1,0,0.2,0,0.3,0C30,117.1,30,117.1,29.8,117 M27.9,57.2c0.1,0,0.2,0,0.2,0c0,0.1,0,0.1,0.1,0.1
	c0.1,0,0.1,0,0.1,0.1c0,0.1,0.1,0.1,0.2,0.1c0.2,0,0.3-0.1,0.5-0.4c0.1-0.2,0.3-0.5,0.3-0.6c0-0.1,0.1-0.2,0.3-0.3
	c0.3-0.2,0.4-0.4,0.3-0.5c0,0,0-0.1,0.1-0.1c0.1,0,0.1-0.1,0.1-0.2c0-0.1,0-0.2,0.3-0.3c0.2-0.1,0.4-0.2,0.5-0.3
	c0.2-0.2,0.2-0.2,0.1,0c-0.1,0.2-0.1,0.2,0.1,0.1c0.1-0.1,0.3-0.2,0.5-0.2c0.2,0,0.4-0.2,0.6-0.4c0.2-0.2-1-0.3-1-0.3
	c0,0,1.5-0.1,1.5-0.2c0-0.2,0-0.2,0.1-0.1c0.1,0.2,1,0,1.8-0.4c0.5-0.2,0.5-0.3,0.4-0.4c-0.1,0-0.3-0.1-0.4-0.1
	c-0.2,0-0.2-0.1-0.1-0.1c0.1,0,0.2-0.1,0.2-0.2c0-0.1,0-0.2,0.1-0.1c0.1,0,0.1,0.1,0.2,0.2c0,0.1,0.6,0.2,0.6,0.1
	c0-0.2-0.2-0.6-0.4-0.6c-0.2-0.1-0.4-0.4-0.2-0.4c0.1,0,0.1,0.1,0.1,0.1c0,0.1,0.3,0.4,0.4,0.3c0.1-0.1,0.1-0.3-0.1-0.4
	c-0.1-0.1-0.2-0.2-0.2-0.2c0,0,0.1,0,0.2,0.1c0.2,0.1,0.7,0,0.7-0.2c0-0.1,0.1-0.2,0.2-0.2c0.1,0,0.1,0,0.2-0.1c-0.1,0-0.1,0-0.2,0
	c-0.2,0-0.2-0.3,0-0.3c0.1,0,0.2,0,0.2-0.1c0-0.2-0.1-0.4-0.3-0.4c-0.4,0-0.3-0.2,0-0.2c0,0,0,0.1,0,0.1c0,0,0.1,0,0.1-0.1
	c0.2,0,0.3,0,0.3,0.1c0,0.1,0,0.1,0.1,0c0.2-0.2,0.1-0.3-0.1-0.3c-0.1,0-0.2-0.1-0.2-0.1c0-0.1-0.1-0.1-0.2-0.1
	c-0.1,0-0.1,0-0.2,0.1c0.1-0.1,0.1-0.1,0.2-0.2c0.1-0.1,0.2-0.2,0.3-0.2c0.1,0,0.1-0.1,0.2-0.2c0-0.1,0.1-0.2,0.2-0.2
	c0.1,0,0.2,0,0.3-0.1c0.3-0.2,0.5-0.4,0.9-0.5c0.2-0.1,0.2-0.1,0.4-0.1c-0.2,0-0.2-0.1-0.4-0.1c-0.2-0.1-0.5,0-0.7,0
	c-0.2,0.1-0.4,0.1-0.5,0.1c-0.1,0-0.3,0-0.5,0.1c-0.2,0.1-0.3,0.1-0.3,0.1c0,0,0-0.1,0-0.1c0,0,0.1-0.1,0.2-0.2
	c0.1-0.2,0.1-0.2-0.2-0.1c-0.2,0-0.4,0-0.3,0c0-0.1,0.2-0.1,0.4-0.1c0.2,0,0.3-0.1,0.3-0.1c0-0.1,0-0.1-0.2-0.1
	c-0.2,0-0.4-0.1-0.5-0.1c-0.7-0.2-1.5-0.1-2.2,0c-0.2,0-0.4,0.1-0.4,0.2c0,0-0.4,0.1-0.8,0.1c-0.5,0-0.7,0.1-0.6,0.1
	c0.2,0.1,0.3,0.2,0.1,0.2c0,0-0.1,0-0.1,0.1c0,0.1,0,0.1-0.5,0c-0.5-0.2-0.6-0.1-0.6,0.1c0,0.2-0.1,0.2-0.3,0.1
	c-0.1-0.1-0.2,0-0.2,0c-0.1,0.1-0.1,0.1-0.1,0c-0.1-0.2-1.4,0.2-1.5,0.4c0,0.1-0.1,0.1-0.3,0.2c-0.3,0-0.9,0.3-1.1,0.5
	c-0.1,0,0,0.1,0.1,0.1c0.1,0,0.2,0,0.2,0.1C27,50,26.9,50,26.4,50.2c-0.8,0.3-1,0.4-1.1,0.4c-0.1,0.1,0.5,0.2,0.6,0.1
	c0.1,0,0.1,0,0,0c0,0.1-0.2,0.1-0.4,0.2c-0.2,0-0.3,0.1-0.2,0.1c0.1,0,0.1,0.1,0.2,0.2c0,0.1,0.3,0.1,0.7,0c0.7-0.1,1.2-0.1,1.2,0.2
	c0,0.1,0,0.1,0.1,0.1c0,0,0.1,0.2,0.1,0.4c0,0.4,0,0.5-0.1,0.6c-0.3,0.3-0.3,0.4,0,0.3c0.2-0.1,0.3,0,0.4,0.1c0.1,0.2,0.1,0.5,0,0.3
	c0,0-0.2-0.1-0.3-0.1c-0.1,0-0.2,0-0.1-0.1c0-0.1,0-0.1,0,0c-0.1,0-0.1,0.1-0.1,0.2c0,0.1,0,0.1-0.1,0.1c0,0-0.1,0.1-0.1,0.2
	c-0.1,0.2,0.1,0.3,0.3,0.2c0.1,0,0.1,0,0.2-0.1c0-0.1-0.1-0.1-0.1-0.2c-0.1-0.1-0.1-0.1,0.1-0.1c0.1,0,0.2,0.1,0.2,0.2
	c0,0.1,0,0,0.1,0c0.1-0.1,0.1-0.1-0.1,0.2C28.1,53.9,28,54,27.9,54c-0.1,0-0.3,0.1-0.4,0.3c-0.2,0.2-0.3,0.3-0.2,0.4
	c0,0.1,0,0.1-0.1,0.2c-0.1,0-0.1,0.1,0,0.3c0,0.1,0,0.3,0,0.4c-0.1,0.2-0.1,0.2,0.2,0c0.2-0.1,0.2-0.1,0,0.1
	c-0.2,0.3-0.2,0.3-0.1,0.8C27.5,57.1,27.6,57.3,27.9,57.2 M26.7,116.3C26.7,116.3,26.7,116.3,26.7,116.3c-0.1-0.2-0.3-0.2-0.3-0.1
	c0,0,0,0,0,0C26.5,116.3,26.6,116.3,26.7,116.3 M25.5,111.8C25.5,111.8,25.4,111.8,25.5,111.8c0,0.1,0,0.1,0.1,0.2
	c0,0,0.1,0,0.1-0.1C25.6,111.9,25.6,111.8,25.5,111.8 M26.1,114.4c-0.1-0.1-0.1-0.1-0.2-0.1c-0.1-0.1-0.2-0.2-0.2-0.2
	c0,0,0-0.1,0-0.1c0,0-0.1-0.1-0.1-0.2c0-0.1-0.1-0.2-0.2-0.3c-0.1,0-0.1-0.1-0.1-0.2c0-0.1-0.5-0.5-0.6-0.6c-0.1,0-0.1-0.1-0.2-0.2
	c-0.1-0.1-0.1-0.2-0.1-0.2c0.2-0.2,0.3-0.3,0.3-0.2c0.1,0,0.1,0,0.1-0.1c0-0.2,0.3-0.3,0.5-0.3c0.1,0,0.1,0,0.1-0.1
	c0,0,0.1-0.1,0.1-0.1c0.1,0,0.1,0,0.2,0c-0.1,0-0.1,0-0.2-0.1c-0.1,0-0.2,0-0.2,0c0,0-0.1,0.1-0.2,0.1c-0.3,0-0.6,0.2-0.7,0.2
	c0,0-0.2,0.1-0.3,0.2c-0.1,0.1-0.2,0.2-0.2,0.2c0,0.1,0.1,0.1,0.1,0.1c0,0,0.1,0,0.1,0.2c0.1,0.2,0,0.2-0.1,0.2
	c-0.2,0-0.2-0.1,0.3,0.5c0.1,0.1,0.2,0.3,0.2,0.3c0.1,0.1-0.2,0.2-0.7,0.1c-0.5-0.1-0.6-0.1-0.7-0.3c-0.1-0.1-0.1-0.2-0.2-0.1
	c0,0-0.1,0.1,0,0.1c0,0,0.1,0.1,0.1,0.1c0,0.1,0,0.1-0.2,0c-0.1-0.1-0.3-0.1-0.4-0.2c-0.1,0-0.2-0.1-0.3-0.2c-0.1-0.1-0.2-0.1-0.2,0
	c0,0.1-0.1,0.1-0.4-0.1c-0.2-0.1-0.4-0.2-0.4-0.2c0,0-0.2-0.1-0.3-0.1c-0.1,0-0.3-0.1-0.3-0.2c0,0-0.1-0.1-0.2-0.1
	c-0.8-0.2-1.5-0.5-2.2-0.9c-0.1-0.1-0.2-0.1-0.1,0c0,0.1,0.1,0.1,0.3,0.2c0.2,0.1,0.3,0.1,0.3,0.2c0,0-0.1,0-0.2-0.1
	c-0.1-0.1-0.2-0.1-0.2-0.1c0.1,0,0.2,0.1,0.2,0.2c0,0,0.1,0.1,0.1,0.1c0,0,0.1,0,0.1,0.1c1.4,1,2.9,1.8,4.5,2.6c0.1,0,0.1,0,0.1,0
	c-0.1-0.1-0.2-0.2-0.4-0.2c-0.1-0.1-0.3-0.1-0.3-0.2c-0.1-0.1,0-0.1,0.2,0c0.6,0.3,1.2,0.5,1.2,0.5c0,0-0.1-0.1-0.3-0.2
	c-0.4-0.2-0.9-0.5-0.8-0.6c0,0,0.2,0.1,0.4,0.2c0.5,0.3,0.9,0.4,1.2,0.4c0.1,0,0.4,0,0.6,0c0.3,0,0.4,0,0.4-0.1c0-0.1,0.1-0.1,0.1,0
	c0,0,0.1,0,0.2-0.1c0.1-0.1,0.1-0.2,0-0.2c-0.1,0-0.1-0.1-0.1-0.1c0,0,0.1,0,0.2,0C26,114.4,26,114.4,26.1,114.4 M24.7,115.4
	c-0.1,0-0.2,0-0.2,0.1c0.1,0,0.2,0.1,0.3,0.1c0.1,0,0.2,0,0.2,0C25.2,115.5,25.1,115.4,24.7,115.4 M18.5,111.6
	c-0.3-0.1-0.4-0.2-0.3-0.1c0.1,0.1,0.2,0.1,0.2,0.1c0,0,0.1,0.1,0.1,0.1c0.1,0,0.2,0.1,0.4,0.1C19.4,112.1,19,111.8,18.5,111.6
	 M18.6,102.8C18.5,102.8,18.5,102.9,18.6,102.8c0,0.1,0,0.2,0.1,0.2c0,0,0.1,0,0-0.1C18.7,102.9,18.6,102.8,18.6,102.8 M20.1,112.4
	C20.1,112.3,20,112.3,20.1,112.4c-0.1-0.1-0.1-0.1-0.1,0C20,112.4,20,112.4,20.1,112.4C20.1,112.5,20.1,112.4,20.1,112.4
	 M20.6,106.2c-0.1,0-0.1,0.1-0.1,0.1c0,0.1,0,0.1,0.1,0.1C20.7,106.3,20.7,106.3,20.6,106.2 M21,106.3c-0.1,0-0.2,0-0.2,0.1
	c0,0.1,0,0.1,0.1,0.1C21.2,106.5,21.2,106.3,21,106.3 M22.4,113.1c-0.1,0-0.1,0-0.1,0c0,0,0.1,0.1,0.2,0.1c0.1,0,0.1,0,0.1,0
	C22.5,113.2,22.5,113.1,22.4,113.1 M23.7,112.3c0,0,0.1-0.1,0.1-0.1c0-0.1-0.1-0.1-0.1,0C23.6,112.3,23.6,112.4,23.7,112.3
	 M22.7,112.6c0.1,0,0.1,0,0.1,0C22.8,112.6,22.7,112.6,22.7,112.6C22.6,112.6,22.6,112.6,22.7,112.6 M22.6,112.8
	c0,0,0.1,0.1,0.2,0.1c0.3,0,0.3,0,0-0.1C22.7,112.8,22.6,112.8,22.6,112.8 M23.6,113.4c-0.2,0-0.2,0.1,0.2,0.1c0.6,0.1,0.6,0,0-0.7
	c-0.3-0.4-0.4-0.4-0.6-0.4c-0.1,0-0.1,0.1,0,0.2c0.1,0.1,0.1,0.2,0,0.2c0,0,0,0.1,0.1,0.1c0.2,0.1,0.2,0.1-0.1,0.1
	c-0.1,0-0.2,0-0.3,0c-0.1,0-0.1,0-0.2,0c-0.1,0-0.1,0,0,0.1c0.1,0.1,0.2,0.1,0.3,0.1c0.1,0,0.2,0,0.3,0.1
	C23.6,113.4,23.6,113.4,23.6,113.4 M24.3,111.7C24.3,111.7,24.3,111.7,24.3,111.7c0.1,0.1,0.1,0.1,0.1,0
	C24.4,111.6,24.4,111.6,24.3,111.7 M14.1,76.8c0,0.1,0.6,0.3,0.8,0.2c0,0,0.2-0.1,0.4-0.1c0.2,0,0.3,0,0.4-0.1c0,0-0.1-0.2-0.2-0.3
	c-0.2-0.3-0.9-0.5-0.9-0.2c0.1,0.3-0.1,0.5-0.3,0.4C14.3,76.7,14.2,76.7,14.1,76.8 M14.2,74c0,0,0.1-0.1,0.1-0.1c0-0.1,0-0.1,0-0.1
	c0,0-0.1,0-0.1,0.1C14.2,74,14.2,74,14.2,74 M13.5,76.8c-0.1-0.2-0.4-0.2-0.4,0c0,0.1,0.1,0.1,0.2,0.1C13.6,77,13.6,76.9,13.5,76.8
	 M13.7,75.9c-0.1,0.1,0,0.2,0.2,0.2c0.4,0,0.6-0.1,0.4-0.3c-0.1,0-0.2-0.2-0.3-0.4c-0.6-0.9-0.8-1-1.2-0.8c-0.1,0.1-0.3,0.2-0.4,0.3
	c-0.1,0.2-0.1,0.2,0,0.1c0.1,0,0.2-0.1,0.3-0.2c0.1-0.1,0.3-0.1,0.3,0c0,0.1,0,0.1,0.1,0.1c0.1,0,0.2,0.1,0.2,0.1
	c0,0.1,0.1,0.1,0.2,0.1c0.1,0,0.1,0.1,0.1,0.2c0,0.1,0,0.2,0.1,0.2C13.8,75.7,13.8,75.7,13.7,75.9 M16.2,76.9c-0.1,0-0.2,0-0.2,0.1
	c0,0.1,0,0.1,0.1,0.1c0.1,0,0.2-0.1,0.2-0.1C16.3,77,16.3,76.9,16.2,76.9 M16.5,80.6c0,0-0.1,0-0.1,0.1c0,0.1,0,0.1,0,0.1
	c0,0,0.1-0.1,0.1-0.1C16.6,80.6,16.6,80.6,16.5,80.6 M21.9,64.3c-0.1-0.1-0.2-0.1-0.2-0.2c0,0,0,0,0,0.1c0,0.1,0.1,0.2,0.2,0.2
	C22,64.4,22,64.4,21.9,64.3 M22.6,63c-0.1-0.2-0.3-0.3-0.3-0.1c0,0,0.1,0.1,0.2,0.2C22.6,63.2,22.7,63.1,22.6,63 M24.6,63
	c-0.2,0.1-0.3,0-0.3-0.1c0-0.1-0.1-0.2-0.1-0.1c-0.1,0.1,0-0.1,0.3-0.5c0.3-0.4,0-0.3-0.4,0.1c-0.2,0.2-0.4,0.4-0.4,0.6
	c-0.1,0.1-0.2,0.2-0.2,0.2c0,0-0.1,0.1-0.1,0.2c0,0.1-0.1,0.2-0.1,0.2c0,0-0.1,0.1-0.1,0.1c0,0.1,0.2,0.1,0.5,0.1
	c0.4,0,0.5,0,0.4,0.1c-0.3,0.3,0,0.2,0.4-0.2c0.2-0.2,0.3-0.3,0.3-0.3c-0.1,0.1-0.1,0,0-0.2C24.8,62.9,24.8,62.9,24.6,63 M24.6,63.7
	c0.1-0.2,0-0.1-0.2,0.1c-0.2,0.2-0.2,0.2-0.1,0.3c0.1,0.1,0.1,0,0.2-0.1c0.1-0.1,0.1-0.2,0.1-0.2C24.5,63.8,24.6,63.7,24.6,63.7
	 M19.1,61.4c-0.1,0-0.1,0-0.1,0.1c0,0,0,0.1,0,0.1c0,0,0.1,0,0.1-0.1C19.1,61.5,19.1,61.4,19.1,61.4 M20.1,60.1c0,0-0.1,0.1-0.1,0.1
	c0,0.1,0,0.1,0.1,0C20.1,60.2,20.2,60.1,20.1,60.1C20.2,60.1,20.2,60.1,20.1,60.1 M20.8,57.4c-0.1,0-0.2,0.1-0.2,0.1
	c-0.1,0.1,0,0.1,0,0.1c0.1,0,0.2-0.1,0.2-0.1C21,57.5,20.9,57.4,20.8,57.4 M21.4,57.6c0,0-0.1,0.1-0.2,0.1c0,0.1-0.1,0.1,0,0.1
	c0,0,0.1-0.1,0.2-0.1C21.4,57.6,21.4,57.6,21.4,57.6 M21.5,57c0-0.1,0-0.1-0.1-0.1c-0.1,0-0.1,0-0.1-0.1c0.1-0.1-0.1-0.3-0.3-0.3
	c0,0,0-0.1,0-0.1c0-0.1,0.1-0.1,0.1-0.1c0,0-0.1,0-0.1,0.1c-0.1,0-0.2,0.2-0.3,0.4c-0.1,0.2-0.3,0.4-0.4,0.5c-0.2,0.2-0.2,0.2,0,0.1
	c0.1-0.1,0.2,0,0.2,0c0,0.1,0.1,0.1,0.3-0.1C21,57,21,57,21.1,57.1C21.3,57.2,21.4,57.2,21.5,57 M21.9,57.1
	C21.9,57.1,21.8,57.2,21.9,57.1C21.9,57.2,21.9,57.2,21.9,57.1C22,57.1,22,57.1,21.9,57.1 M23,54.8c-0.1,0.1-0.2,0.2-0.1,0.2
	C22.9,55,23,54.9,23,54.8C23.3,54.6,23.3,54.6,23,54.8 M23.6,55.3c0,0,0.1,0,0.1,0C23.8,55.2,23.7,55.2,23.6,55.3
	C23.6,55.2,23.5,55.3,23.6,55.3 M23.6,55c0,0-0.1,0.1-0.3,0.1c-0.3,0.1-0.6,0.5-0.3,0.5c0.2,0,0.3-0.1,0.5-0.4
	C23.6,55.1,23.6,55,23.6,55 M10.1,62.7c0,0,0.1-0.1,0.2-0.3c0.1-0.2,0.1-0.3,0.1-0.2c-0.1,0-0.1,0.1-0.1,0.1
	C10.2,62.3,10.1,62.7,10.1,62.7 M9.4,61.2C9.5,61.1,9.5,61.1,9.4,61.2C9.4,61.1,9.4,61.2,9.4,61.2c-0.1,0.1-0.2,0.1-0.3,0.2
	C9,61.5,8.9,61.7,9,61.6c0.1-0.1,0.4-0.3,0.3-0.3C9.3,61.3,9.3,61.3,9.4,61.2 M17.9,106.3c0-0.1,0-0.3,0.1-0.2
	c0.1,0,0.1,0.1,0.1,0.2c0,0.1,0,0.1,0.1,0.1c0.1,0,0.1,0,0.1,0.2c0,0.1-0.1,0.1-0.1,0.1c0,0-0.1,0-0.1,0.1c0,0,0.1,0.1,0.2,0.1
	c0.1,0,0.2,0.1,0.2,0.1c0,0.1,0.1,0.1,0.2,0.1c0.1,0,0.2,0,0.1-0.1c-0.1-0.1-0.1-0.1,0.1,0c0.1,0.1,0.3,0.1,0.4,0.1
	c0.3,0,0.4-0.1,0.1-0.2c-0.2,0-0.8-0.5-0.8-0.6c0-0.1-0.1-0.2-0.2-0.2c-0.1-0.1-0.2-0.1-0.1-0.1c0.1,0,0.1,0,0-0.3
	c-0.2-0.3-0.2-0.4,0-0.4c0.1,0,0.1-0.1,0.1-0.2c0-0.1,0.1-0.3,0.2-0.3c0.2-0.1,0.2-0.4,0-0.5c-0.4-0.1-0.6-0.7-0.2-0.7
	c0.1,0,0.2-0.1,0.2-0.2c0-0.2,0-0.5,0-0.6c0-0.1,0-0.1,0.1-0.1c0.1,0,0.1,0,0-0.1c-0.1,0-0.2-0.2-0.2-0.3c-0.1-0.2-0.1-0.2,0.2-0.1
	c0.3,0.1,0.4,0.1,0.4-0.1c0-0.1,0-0.3-0.1-0.4c-0.1-0.1,0-0.1,0.2-0.1c0.5,0.1,0.8,0,1-0.3c0.1-0.3,0.1-0.5,0-0.5
	c0,0-0.1-0.1-0.1-0.2c0-0.1-0.1-0.3-0.2-0.3c-0.1-0.1-0.2-0.2-0.2-0.3c0-0.1,0-0.1,0.1,0c0.1,0.1,0.4,0.2,0.6,0.3
	c0.4,0.1,0.5,0.1,0.6-0.1c0.1-0.1,0.2-0.4,0.2-0.6c0.1-0.4,0.2-0.8,0.3-0.7c0,0.1,0.1,0.1,0,0.2c0,0.1,0,0.1,0-0.1
	c0-0.1,0.2-0.3,0.3-0.5c0.1-0.2,0.1-0.5,0.1-0.8c-0.1-0.3,0-0.6,0-0.7c0.2-0.3,1.1-0.7,1.4-0.7c0.3,0,0.6-0.2,0.6-0.4
	c0-0.1,0.1-0.3,0.1-0.5c0.1-0.2,0.1-0.5,0.1-0.5c0,0,0-0.3,0-0.5c0-0.3,0-0.8,0-1.2c-0.1-0.5-0.1-0.8,0.1-1c0.4-0.6,0.8-1.2,1-1.9
	c0-0.2,0-0.6-0.1-0.9c-0.1-0.4-0.2-0.5-0.4-0.6c-0.1,0-0.5-0.3-0.8-0.6c-0.5-0.5-0.7-0.6-1-0.6c-0.2,0-0.5-0.1-0.6-0.2
	c-0.1-0.1-0.3-0.1-0.4-0.1c-0.2,0.1-0.2,0.1-0.2-0.2c0-0.2-0.1-0.4-0.6-0.6c-0.2-0.1-0.3-0.2-0.6-0.3c-0.1,0.1-0.1,0.2-0.2,0.4
	c-0.1,0.2-0.2,0.3-0.3,0.3c0-0.1,0-0.2,0.1-0.3c0.2-0.3,0.1-0.5-0.2-0.6c-0.2-0.1-0.3,0-0.4,0.2c-0.1,0.3-0.1,0.3-0.2,0.1
	c0-0.1,0.1-0.4,0.2-0.6c0.2-0.3,0.2-0.4,0-0.6c-0.1-0.1-0.2-0.4-0.3-0.6c-0.1-0.2-0.3-0.7-0.4-0.9c-0.2-0.4-0.3-0.5-0.8-0.6
	c-0.6-0.1-0.6-0.2-0.8-0.7c-0.1-0.4-0.3-0.6-0.4-0.6c-0.2,0-0.2-0.1-0.1-0.3c0.1-0.2,0.1-0.3-0.1-0.4c-0.1-0.1-0.2-0.2-0.2-0.3
	c0-0.2-0.1-0.2-0.4-0.1c-0.3,0.1-0.4,0.1-0.5,0c-0.1-0.1-0.2-0.1-0.3-0.1c-0.2,0-0.3-0.1-0.3-0.2c0-0.2-0.1-0.3-0.2-0.3
	c-0.1,0-0.1-0.1-0.1-0.1c0-0.1,0,0,0,0.1c0,0.1-0.1,0.2-0.2,0.1c-0.1,0-0.2,0-0.3,0.1c-0.2,0.2-0.2,0,0-0.3c0.3-0.4,0.2-0.4-0.2-0.1
	c-0.2,0.1-0.4,0.2-0.4,0.2c-0.1,0-0.1,0-0.2,0.1c-0.1,0.1-0.1,0.1-0.2,0.1c0,0-0.1,0-0.1,0c0,0-0.1,0.1-0.1,0.2
	c0,0.1-0.2,0.4-0.4,0.5C12,81.2,12,81.2,12,80.9c-0.1-0.4-0.3-0.5-0.6-0.3c-0.3,0.2-0.3,0.1-0.4,0c-0.1-0.1-0.1-0.3-0.1-0.5
	c0-0.3,0-0.4,0.3-1.2c0.3-0.7,0.4-0.8,0.3-1.1c0-0.2-0.1-0.2-0.5-0.3c-0.6,0-0.6,0-0.5-0.2c0.1-0.1,0.2-0.4,0.3-0.6
	c0.1-0.2,0.2-0.4,0.2-0.4c0,0,0.1-0.1,0.2-0.3c0.1-0.2,0.2-0.4,0.3-0.5c0.3-0.4,0.3-0.5-0.1-0.4c-0.4,0.1-0.6,0.2-0.7,0.6
	c-0.1,0.3-0.5,0.7-0.5,0.6c0,0-0.1,0-0.3,0c-0.4,0.2-0.5-0.1-0.4-0.8c0-0.5,0.1-0.7,0.4-1.4c0.2-0.4,0.3-0.8,0.4-0.8
	c0,0,0.1-0.2,0.2-0.4c0.1-0.4,0.5-1,0.7-1c0.1,0,0.2-0.1,0.3-0.2c0.2-0.2,0.6-0.2,1,0c0.2,0.1,0.2,0.1,0.3-0.2
	c0.1-0.3,0.1-0.3,0.5-0.3c0.2,0,0.4,0.1,0.4,0.2c0,0.1,0.1,0.1,0.2,0c0.2-0.1,0.3,0.4,0.1,0.7c-0.1,0.1-0.1,0.4-0.1,0.5
	c0,0.2,0,0.3,0,0.4c0,0.1,0,0.4,0.1,0.5c0,0,0.1-0.1,0.2-0.3c0.2-0.3,0.2-0.6,0.4-1.6c0-0.2,0.1-0.5,0.1-0.5
	c0.1-0.2,0.5-0.8,0.5-0.8c0,0,0.2-0.1,0.4-0.3c0.2-0.2,0.3-0.3,0.4-0.3c0,0,0.1-0.1,0.2-0.2c0.1-0.1,0.2-0.2,0.3-0.2
	c0.1,0,0.1-0.1,0.2-0.2c0-0.1,0.1-0.2,0.1-0.1c0,0,0.1,0,0.1,0c0-0.1,0.1-0.1,0-0.1c-0.1,0,0-0.1,0.1-0.2c0.1-0.1,0.1-0.2,0.1-0.3
	c0-0.2,0.2-0.7,0.3-0.9c0.1-0.1,0.1,0,0,0.3c-0.1,0.4-0.1,0.4,0,0.2c0.1-0.1,0.2-0.3,0.2-0.4c0-0.1,0.1-0.2,0.2-0.2
	c0.1,0,0.2-0.1,0.3-0.3c0.1-0.2,0.2-0.3,0.4-0.3c0.1,0,0.2,0,0.1-0.1c0-0.1,0.1-0.1,0.3-0.2c0.3-0.1,0.4-0.1,0.4-0.3
	c0-0.3,0.4-0.8,0.8-1c0.2-0.1,0.4-0.2,0.5-0.3c0.1-0.1,0.2-0.1,0.3-0.1c0,0,0.2-0.1,0.3-0.1c0.2-0.1,0.2-0.1,0,0.1
	c-0.1,0.1-0.2,0.2-0.3,0.2c-0.1,0-0.2,0.4-0.2,0.4c0,0,0.2,0,0.3-0.1c0.2-0.1,0.3-0.2,0.4-0.3c0.3-0.1,0.8-0.4,0.9-0.6
	c0.1-0.1,0.1-0.1,0.1,0c0,0.1,0,0.1,0.1,0c0.1-0.1,0.1-0.1,0.1-0.1c-0.1,0-0.1-0.1,0-0.2c0.1-0.2,0-0.2-0.2,0.1
	c-0.2,0.3-0.3,0.3-0.5,0.3c-0.3-0.1-0.4-0.4-0.3-0.7c0.1-0.2,0.1-0.3,0-0.3c-0.1,0-0.1,0,0.1-0.1c0.1,0,0.3-0.2,0.3-0.3
	c0.1-0.1,0-0.2-0.3-0.2c-0.4,0-0.8,0.3-1.3,0.7c-0.2,0.2-0.2,0.2,0.1-0.2c0.2-0.2,0.5-0.5,0.7-0.6c0.2-0.1,0.4-0.3,0.5-0.4
	c0.2-0.1,0.4-0.2,0.9-0.1c0.6,0.1,0.7,0,1-0.2c0.2-0.1,0.5-0.3,0.7-0.4c0.3-0.1,0.4-0.2,0.5-0.5c0.1-0.3,0.1-0.4-0.1-0.5
	c-0.1-0.1-0.2-0.2-0.1-0.3c0.1-0.1,0.1-0.1,0.1-0.1c-0.1,0-0.2-0.1-0.2-0.1c0,0-0.1,0-0.2,0c-0.1,0-0.1-0.1-0.1-0.1
	c0-0.1,0-0.2-0.1-0.2c0-0.1,0-0.2,0-0.3c0.1-0.1,0.1-0.5,0-0.9c0-0.3,0-0.4,0-0.7c-0.1,0.1-0.2,0.2-0.3,0.4C23.4,59,23,59.2,23,59
	c0-0.1-0.1-0.1-0.2-0.1c-0.1,0.1-0.1,0,0.1-0.4c0.2-0.4,0.2-0.4,0-0.5c-0.1,0-0.2-0.1-0.1-0.2c0.1-0.2-0.1-0.4-0.4-0.3
	c-0.1,0-0.3,0-0.4,0c-0.1,0-0.2,0-0.3,0c-0.1,0.1-0.2,0.3-0.3,0.6c-0.2,0.4-0.2,0.5-0.4,0.7c-0.2,0.2-0.2,0.2-0.1,0.4
	c0.1,0.1,0,0.6-0.2,0.9c-0.1,0.1-0.3,0.3-0.5,0.4c-0.2,0.1-0.2,0.1-0.4,0.3c-0.1,0.2-0.1,0.3-0.1,0.4c-0.2,0.6-0.3,0.7-0.5,0.9
	c-0.2,0.1-0.2,0.1-0.3-0.2c0-0.2,0-0.4,0-0.5c0.4-0.8,0.4-0.8,0.1-0.8c-0.2,0-0.3,0-0.3-0.1c0-0.1,0-0.1-0.1-0.1
	c-0.1,0-0.2-0.1-0.2-0.2C18.3,60,18.2,60,18,60c-0.2,0-0.3,0-0.2-0.3c0.1-0.2,0-0.3,0-0.3c-0.1-0.1,0-0.3,0.4-0.8
	c0.4-0.4,0.9-0.9,1.1-0.9c0.1,0,0.1-0.1,0.1-0.1c0-0.1,0.3-0.4,0.5-0.4c0.2,0,1.1-0.9,1-1c0,0,0,0,0.1,0c0.1,0,0.2,0.1,0.2,0.1
	c0,0.1,0,0.1,0.1,0c0-0.1,0.1-0.2,0.2-0.2c0.1,0,0.3-0.1,0.4-0.2c0.1-0.1,0.1-0.1,0.2-0.1c0-0.1,0-0.1,0-0.2c0-0.2,0-0.4,0.1-0.3
	c0,0,0.1,0,0.1-0.1c0.1-0.1,0-0.2-0.1-0.2c-0.1-0.1-0.2-0.1-0.2-0.1c0,0,0.2-0.1,0.5-0.1c0.4,0,0.5-0.1,0.6-0.2
	c0.1-0.2,0.1-0.2,0.2,0c0,0.1,0.1,0.2,0,0.2c0,0,0,0.1,0.1,0c0.1,0,0.1,0,0.1,0c0,0.1,0,0.2,0.1,0.2c0.3,0.2,0.2,0.6-0.3,0.9
	c-0.1,0.1-0.2,0.1-0.2,0.2c0,0.1-0.1,0.2-0.3,0.2c-0.1,0.1-0.3,0.1-0.4,0c-0.1-0.1-0.4,0.1-0.5,0.4c0,0.1,0.2,0.1,0.4,0
	c0.4-0.1,0.5-0.1,0.5,0.1c0,0.1,0.1,0.1,0.1,0.1c0.1,0,0.1,0,0,0.1c-0.1,0.1,0,0.4,0.2,0.3c0.1-0.1,0.1,0,0.1,0
	c0,0.1,0.1,0.1,0.2,0.2c0.1,0,0.2,0.1,0.3,0.1c0.2,0.1,0.2-0.2,0-0.4c-0.2-0.3-0.1-0.4,0.2-0.1c0.2,0.2,0.2,0.2,0.4,0
	c0.1-0.2,0.2-0.3,0.2-0.5c0-0.1,0-0.3-0.1-0.3c0,0-0.1-0.1-0.1-0.2c-0.1-0.2-0.1-0.2,0.1-0.4c0.2-0.2,0.3-0.1,0.4,0.2
	c0,0.2,0.2,0.3,0.3,0.1c0-0.1,0.1-0.1,0.1-0.1c0,0,0.2-0.1,0.3-0.2c0.1-0.1,0.2-0.2,0.3-0.3c-0.1,0-0.1,0-0.2-0.1
	c-0.1,0-0.2-0.1-0.2-0.2c0-0.1-0.1-0.1-0.2-0.2c-0.5-0.1-0.6-0.4-0.2-0.5c0.1,0,0.1,0,0-0.1c-0.1-0.1-0.1-0.1,0-0.1
	c0.1,0,0.1-0.1,0.2-0.1c0-0.1-0.1-0.1-0.2,0c-0.1,0.1-0.1,0-0.1-0.1c0.1-0.1,0.1-0.1-0.2-0.1c-0.1,0-0.1,0-0.1-0.1
	c0.1-0.1-0.2-0.3-0.3-0.1c-0.1,0.1-0.1,0-0.2-0.1c0-0.1-0.1-0.3-0.2-0.2c-0.1,0-0.1,0,0-0.1c0.1-0.2-0.1-0.3-0.4-0.3
	c-0.2,0-0.3,0.1-0.3,0.2c-0.1,0.1-0.1,0.1,0,0c0-0.1,0-0.1-0.3,0c-0.4,0.1-0.6,0.3-0.8,0.6c-0.1,0.1-0.1,0.2,0,0.2c0,0,0.1,0,0,0.1
	c-0.1,0.1-0.1,0.1-0.2,0c0-0.1,0-0.2,0-0.2c0-0.1,0.1-0.2,0.1-0.2c0,0,0.1-0.1,0.2-0.2c0.2-0.1,0.2-0.2,0-0.1
	c-0.3,0.1-0.6,0.2-0.9,0.6c-0.3,0.3-0.3,0.3-0.3,0.5c0,0.2,0.1,0.2,0.3,0.3c0.2,0,0.3,0.1,0.2,0.1c-0.1,0.1-0.3,0.3-0.2,0.3
	c0,0,0,0.1-0.2,0.2c-0.1,0.1-0.3,0.2-0.3,0.2c0,0-0.1,0-0.1,0.1c-0.1,0.2-0.2,0.3-0.2,0.1c0-0.1,0-0.2,0.1-0.3
	c0.1-0.1,0.1-0.1,0.1-0.2c-0.1-0.1-0.1-0.1-0.3,0.1c-0.3,0.3-0.3,0.3-0.2,0c0.1-0.1,0.1-0.2,0-0.2c-0.1,0-0.1-0.1,0.1-0.2
	c0.1-0.1,0.1-0.6,0-0.5c0,0,0-0.1,0.2-0.2c0.2-0.1,0.3-0.2,0.3-0.2c0.1,0,0.6-0.4,0.7-0.5c0.1-0.1-0.8,0.1-0.9,0.2
	c-0.1,0.1-0.1,0.1-0.2,0.3c-0.1,0.3-0.2,0.4-0.4,0.5c-0.1,0.1-0.2,0.2-0.3,0.3c-0.1,0.2-0.1,0.3,0.2,0.3c0,0,0,0-0.1,0.1
	c0,0.1-0.1,0.1,0,0.1c0.1,0-0.1,0.2-0.3,0.3c-0.1,0.1-0.2,0.1-0.3,0.3c-0.1,0.2-0.1,0.2-0.2,0.1c0,0,0-0.1,0-0.2
	c0-0.1,0.1-0.2,0.1-0.2c0-0.1,0-0.1,0-0.1c0,0,0.1,0,0.2,0c0.1,0,0.1,0,0.1-0.2c0-0.2-0.2-0.2-0.4,0c-0.2,0.2-0.2,0.2-0.1,0.2
	c0.1,0,0.1,0.1-0.1,0.3c-0.2,0.2-1,0.3-1.1,0.1c0-0.1-0.5,0-0.6,0.2c0,0,0.1,0,0.2-0.1c0.1-0.1,0.3-0.1,0.3-0.1c0,0-0.1,0.1-0.2,0.2
	c-0.2,0.1-0.2,0.1-0.3,0.3c-0.1,0.1-0.1,0.2-0.2,0.3c0,0,0,0,0-0.1c0.1-0.2-0.1-0.3-0.6-0.1c-0.3,0.1-0.4,0.1-0.3,0
	c0.1-0.1,0.1-0.1,0.2-0.1c0.2-0.1,0.1-0.2-0.2-0.1c-0.1,0-0.3,0-0.4,0c-0.1-0.1-0.3,0-0.4,0c-0.1,0.1-0.2,0.1-0.2,0
	c0-0.1,0-0.1-0.1,0c-0.2,0.2-0.3,0.2-0.2,0c0-0.1,0-0.1-0.1,0c-0.1,0.1-0.2,0.2-0.4,0.2c-0.4,0.1-0.8,0.3-0.9,0.5
	c-0.1,0.1-0.2,0.1-0.3,0.1c-0.2-0.1,0-0.3-0.6-0.1c-0.1,0-0.2,0-0.2,0c0,0-0.1,0-0.2,0c-0.1,0-0.1,0-0.1,0c0,0-0.1,0-0.1,0.1
	c-0.1,0.1-0.2,0.1-0.3,0.2c-0.2,0.1-0.3,0.2-0.4,0.3c-0.3,0.4-0.6,0.7-0.9,1.1c0,0,0,0,0.1,0c0.1-0.1,0,0.1-0.1,0.2
	c0,0-0.1,0.1-0.1,0.1l-0.4,0.5c0,0,0.1-0.1,0.1-0.1c0.1-0.1,0.1-0.1,0,0c-0.1,0.1-0.1,0.2-0.2,0.2c-0.1,0.1-0.2,0.2-0.3,0.3
	c-0.3,0.4-0.5,0.7-0.8,1.1c0,0,0,0-0.1,0.2c-0.1,0.2-0.1,0.2,0,0.1c0.1,0,0.1,0,0.1,0c0,0,0,0,0,0c0,0,0.1-0.1,0.1-0.1
	c0.1,0,0.1,0-0.1,0.2c-0.1,0.1-0.3,0.4-0.5,0.5C8.2,62,8,62.2,8,62.2c0,0.1-0.1,0.1-0.1,0.1c0,0,0,0-0.1,0.1c0,0-0.1,0.1-0.1,0.1
	c0.1,0,0.1-0.1,0.2-0.1C8,62.3,8.2,62.1,8.3,62c0.1-0.1,0.3-0.2,0.3-0.2c0,0,0.1-0.1,0.1-0.1c0,0,0.1-0.2,0.3-0.3
	c0.1-0.1,0.3-0.2,0.4-0.3C9.5,61,9.5,60.9,9.5,61c-0.1,0,0.1-0.2,0.2-0.3c0.1,0,0.1-0.1,0.2-0.2c0.1-0.1,0.5-0.5,0.6-0.5
	c0.1,0,0.1,0,0,0.1c-0.1,0.1-0.5,0.5-0.4,0.5c0,0,0,0-0.1,0.1c-0.2,0.2,0,0.1,0.2-0.1c0.1-0.1,0.2-0.2,0.3-0.2
	c0.1,0,0.1-0.1,0.2-0.2c0.1-0.2,0.1-0.2,0.2-0.1c0,0,0,0.1,0.1,0.1c0.1,0-0.1,0.3-0.1,0.4c0,0.1,0.1,0.1,0.2-0.1
	c0.1-0.1,0,0-0.1,0.1c-0.2,0.2-0.4,0.7-0.3,0.7c0,0,0.3-0.5,0.3-0.6c0,0,0-0.1,0.1-0.1c0,0,0.1-0.1,0.1-0.1c0-0.1,0-0.1,0,0
	c0,0.1-0.1,0.2-0.1,0.2c0,0.1-0.1,0.1-0.1,0.2c0,0.1,0,0.1,0,0.1c0,0,0.1-0.1,0.1-0.2c0.1-0.1,0.1-0.1,0.1-0.1
	c0,0.1-0.2,0.4-0.2,0.4c0,0-0.1,0.1-0.1,0.1c0,0.1,0,0.1,0,0c0,0,0,0,0,0.2c-0.1,0.1-0.1,0.3-0.1,0.4c0,0.1,0,0.1,0.1-0.1
	c0.1-0.1,0.1-0.2,0.1-0.1c0,0,0,0,0-0.1c0.1-0.2,0.1-0.2,0.1-0.2c0.1,0,0.1,0,0,0.1c-0.1,0.1-0.1,0.5-0.1,0.5c0,0,0,0.1-0.2,0.3
	c-0.2,0.4-0.3,0.5,0,0.2c0.1-0.1,0.1-0.1-0.1,0.1c-0.2,0.2-0.2,0.2-0.1,0.2c0.1-0.1,0.1,0,0,0.1c-0.1,0.1-0.1,0.2-0.1,0.3
	c-0.1,0.1-0.1,0.3-0.1,0.2c0.1,0,0.1,0,0,0.1c-0.1,0.1-0.1,0.1-0.2,0c0,0,0,0-0.1,0.1c-0.1,0.1,0.1,0.8,0.2,0.8
	c0.1,0,0.1-0.1,0.1-0.2c0-0.2,0.1-0.5,0.1-0.5c0,0,0,0,0,0.1c0,0.1,0,0.1,0,0.1c0.1,0.1,0.1,0.2-0.1,0.5c-0.1,0.2-0.1,0.2-0.3,0
	c0,0-0.1,0-0.1,0.2c-0.1,0.2-0.2,0.4-0.5,1c-0.4,0.7-0.8,1.3-1.1,2.1c0,0,0,0.1-0.1,0.2c-0.1,0.2-0.2,0.6-0.1,0.5c0.1-0.1,0,0,0,0.1
	c-0.1,0.1-0.2,0.4-0.2,0.7C8,69.2,8,69.4,7.9,69.5c0,0,0,0.1,0.1,0.2c0.2,0.1,0.2,0.3,0,1.1c-0.1,0.4-0.2,0.8-0.2,1
	c0,0.3,0,0.3-0.1,0.4c-0.1,0.1-0.2,0.1,0,0.7c0,0.1,0,0.3-0.1,0.4c-0.1,0.2-0.1,1,0,0.9c0.1-0.1,0.1-0.4,0.1-0.5c0,0,0-0.3,0.1-0.5
	c0.1-0.2,0.1-0.5,0.1-0.5c0,0,0-0.3,0.1-0.6C8,71.8,8,71.5,8,71.5c0-0.1,0.1-0.3,0.1-0.5c0.1-0.4,0.2-0.4,0.2-0.3
	c0.1,0.1,0,0.3,0,0.6c-0.1,0.2-0.1,0.7-0.1,1c0,0.3,0,0.6,0,0.7c0,0,0,0.3,0,0.7c0,0.7,0,1.3-0.2,1.6c-0.1,0.1-0.1,0.3-0.1,0.3
	c0,0.2,0.1,0.7,0.2,0.9c0.1,0.1,0.1,0.2,0.1,0.2c0,0.1,0.2,0.3,0.3,0.5c0.3,0.4,0.3,0.4,0.5,0.2c0.3-0.2,0.3-0.1,0.4,0.5
	c0.1,0.3,0.4,0.8,0.7,0.8c0.1,0,0.1,0.1,0.1,0.1c0,0.1,0,0.3,0,0.5c0,0.2,0,0.5,0,0.6c-0.1,0.2-0.1,0.3,0,0.3
	c0.2,0.1,0.3,0.3,0.3,0.5c-0.1,0.2-0.1,0.2,0.2,0.3c0.1,0,0.2,0.1,0.2,0.3c0.1,0.3,0.3,0.3,0.3,0.1c0-0.2,0.4-0.6,0.4-0.5
	c0,0,0,0.3,0,0.6c0,0.5-0.2,2.2-0.4,2.3c0,0-0.1,0.1-0.1,0.3c0,0.2,0,0.3-0.1,0.3c-0.1,0-0.2,1-0.2,1.4c0,0.1,0.1,0.3,0.2,0.3
	c0.2,0,0.2,0.3,0,0.5c-0.2,0.3-0.1,1,0.2,1.4c0.1,0.2,0.4,0.7,0.6,1.2c0.2,0.5,0.5,1.1,0.6,1.5c0.2,0.3,0.3,0.6,0.3,0.7
	c0,0.2,0.5,0.8,1,1.3c0.6,0.4,0.9,1,1,1.8c0.2,0.9,0.4,1.9,0.4,2.8c0,0.3,0,0.6,0.1,0.7c0,0.1,0.1,0.2,0,0.2c0,0,0,0.2,0.1,0.5
	c0.2,0.5,0.2,1,0.1,1.7c0,0.4,0,0.6,0.1,0.8c0.1,0.2,0.1,0.4,0.1,0.4c0,0.1,0,0.3,0,0.5c0,0.2,0.1,0.5,0.1,0.6c0,0.1,0,0.2,0.1,0.2
	c0.1,0,0.1-0.1,0-0.3c0-0.2,0-0.3,0-0.2c0.1,0,0.2,0.3,0.3,0.9c0,0.1,0,0.2,0.1,0.4c0,0.2,0,0.3-0.1,0.2c-0.1-0.1-0.2,0-0.3,0
	c-0.1,0.1-0.1,0.1,0,0.1c0.3,0,0.4,0.1,0.5,0.7c0,0-0.1-0.1-0.2-0.2c-0.1-0.1-0.2-0.2-0.2-0.1c0,0,0,0.1,0.1,0.1
	c0.1,0.1,0.1,0.2,0.2,0.4c0.1,0.2,0.1,0.3,0.1,0.1c0-0.1,0.1-0.2,0.1-0.1c0.1,0,0.1,0.4,0,0.5c0,0,0,0.1,0.1,0.1
	c0.1,0,0.2,0.1,0.4,0.4c0.1,0.2,0.2,0.4,0.2,0.4c0,0,0,0,0,0.1c0,0.1,0.1,0.1,0.2,0.1c0.1,0,0.2,0,0.1,0.1c0,0,0,0.1,0.1,0.1
	C17.9,106.6,17.9,106.5,17.9,106.3 M8.6,84.7c0-0.1,0-0.2-0.1-0.2c0,0-0.1,0,0,0.1c0,0.1,0,0.2,0.1,0.2C8.6,84.8,8.6,84.8,8.6,84.7
	 M3.5,75c0,0-0.1,0.1-0.1,0.2c0,0.1-0.1,0.2,0,0.2c0,0,0.1-0.1,0.1-0.2C3.5,75.1,3.5,75,3.5,75 M15,55.1c0,0,0.1,0.1,0.1,0.1
	c0.1,0.1,0.5,0,0.6-0.2c0.1-0.1,0.3-0.3,0.6-0.4c0.1,0,0.1-0.1,0.2-0.1c-0.1,0.1-0.2,0.1-0.3,0.2c-0.1,0.1-0.2,0.1-0.3,0.2
	c0.1,0,0.1,0,0.1,0c0.2,0,0.2,0,0,0.1c-0.1,0-0.2,0.1-0.2,0.1c0,0.1,0.2,0,0.4,0c0.2-0.1,0.4-0.1,0.4,0c0,0-0.1,0.1-0.2,0.1
	c-0.1,0-0.3,0.1-0.4,0.1c-0.1,0.1-0.2,0.1-0.3,0.1c0,0,0,0.1,0,0.1c0,0.1,0.1,0.1,0.2,0.1c0.1,0,0.1,0,0.1,0.1
	c0,0.1,0.8-0.2,1.1-0.4c0.1-0.1,0.2-0.1,0.3-0.1c0.2,0.1,0.8-0.1,0.6-0.3c0,0,0.1-0.1,0.1-0.1c0.1,0,0.1,0,0.2-0.1
	c0,0-0.1-0.1-0.1-0.1c-0.1-0.1-0.1-0.1-0.2-0.1c-0.1,0-0.1-0.1,0-0.4c0.1-0.3,0.1-0.4,0.3-0.5c0.1-0.1,0.2-0.2,0.2-0.2
	c0.1-0.1-0.3,0-0.4,0.1c0,0.1-0.1,0.1-0.2,0.1c-0.1,0-0.1,0-0.2,0.3c-0.1,0.3-0.2,0.4-0.2,0.1c0.1-0.2,0-0.2-0.3,0
	c-0.1,0.1-0.1,0.1-0.1,0c0-0.1,0-0.1-0.2,0c-0.2,0.1-0.2,0.1-0.1,0c0.1-0.1,0-0.1-0.1,0c-0.1,0-0.1,0-0.1,0c0.1-0.1,0-0.2-0.2-0.2
	c-0.1,0-0.2,0.1-0.3,0.1c-0.1,0-0.3,0.1-0.4,0.1c-0.1,0.1-0.2,0.1-0.2,0.2c0,0-0.1,0.1-0.3,0.4C15.2,54.9,15.1,55,15,55.1
	 M16.4,53.6c0.1,0,0.1,0,0.2,0c0.1,0,0.2-0.1,0.3-0.1c0.1-0.1,0.1-0.1,0.1,0c0,0,0,0,0.2-0.1c0.1-0.1,0.2-0.2,0.1-0.1
	c-0.1,0.1,0.3-0.1,0.4-0.3c0.2-0.2-0.3,0-0.8,0.4C16.6,53.5,16.6,53.5,16.4,53.6 M17,53.5C17.1,53.4,17.1,53.4,17,53.5
	c0-0.1-0.1,0-0.1,0.1C16.7,53.7,16.8,53.7,17,53.5 M17.7,53.1c-0.2,0.1-0.3,0.1-0.5,0.3l-0.2,0.2c0,0,0.1,0,0.1,0c0.1,0,0.1,0,0.2,0
	c0.1,0,0.1-0.1,0.2-0.1c0.1-0.1,0.1-0.1,0.1,0c0,0.1,0,0.1-0.1,0.1c-0.1,0-0.1,0.1-0.1,0.1c0,0.1,0.1,0,0.4-0.2
	c0.2-0.1,0.5-0.3,0.6-0.3c0.2,0,0.5-0.2,0.6-0.4c0-0.1,0-0.1-0.1,0c-0.2,0.1-0.2,0.1-0.2-0.1c0.1-0.2,0-0.2-0.2,0
	c-0.1,0.1-0.1,0.1-0.1,0.2c0,0.1,0,0.1-0.2,0.2c-0.1,0-0.2,0-0.2-0.1C17.9,53.1,17.8,53.1,17.7,53.1 M18,52.6
	C18,52.7,18.1,52.6,18,52.6C18.1,52.6,18.1,52.5,18,52.6C18,52.6,18,52.6,18,52.6 M18.4,52.6c0.1,0,0.3-0.1,0.3-0.2
	c0.1-0.1,0-0.1-0.2,0c-0.1,0-0.3,0.1-0.3,0.2C18.2,52.6,18.2,52.7,18.4,52.6 M18.7,52.3c0.2-0.1,0.3-0.1,0.3-0.1c0,0,0,0-0.1,0
	C18.8,52.1,18.7,52.2,18.7,52.3C18.4,52.3,18.4,52.4,18.7,52.3 M19.1,53.1c0.1-0.1,0.1-0.2,0.1-0.1C19.1,52.9,19.1,53,19.1,53.1
	C19,53.1,19,53.1,19.1,53.1 M19.2,53.6C19.3,53.6,19.3,53.6,19.2,53.6c-0.1,0.2-0.2,0.2-0.2,0.1c0,0-0.1,0-0.1,0c0,0.1,0,0.1,0,0.1
	c0.1,0,0.1,0.1,0.2,0.2c0.1,0.1,0.1,0.1,0.2,0.1c0-0.1,0.1-0.1,0.2-0.2c0.2,0,0.4-0.3,0.3-0.4c-0.1,0-0.1,0,0.1-0.2
	c0.1-0.1,0.2-0.2,0.1-0.2c0,0-0.3,0-0.5,0.1C19.2,53.4,19.1,53.6,19.2,53.6 M19.3,52.6C19.3,52.7,19.3,52.7,19.3,52.6
	c0.1,0,0.2,0.1,0.2,0.1c0,0.1,0.1,0,0.2,0c0.2-0.1,0.2-0.1,0.1,0.1c-0.1,0.1-0.1,0.2,0,0.1c0.2-0.1,0.4-0.2,0.6-0.5
	c0.1-0.2,0.1-0.2-0.1-0.1C20,52.4,20,52.4,20,52.5c0,0.1-0.1,0.1-0.1,0c0-0.1,0,0-0.1,0.1c-0.1,0.1-0.1,0.1-0.2,0
	C19.5,52.5,19.3,52.5,19.3,52.6 M19.4,52.4c0.1,0,0.1,0,0.1-0.1C19.5,52.2,19.4,52.2,19.4,52.4C19.3,52.4,19.4,52.4,19.4,52.4
	 M19.8,51.8C20,51.7,20,51.7,19.8,51.8c-0.1,0.2-0.1,0.2,0.1,0.1c0.2,0,0.3-0.1,0.3,0c0,0.1,0.2,0.1,0.2-0.1c0.1-0.1,0-0.3-0.2-0.3
	c-0.1,0-0.2,0-0.3,0C19.9,51.6,19.8,51.6,19.8,51.8C19.7,51.8,19.8,51.8,19.8,51.8 M20.9,52.5c0-0.1-0.1-0.1-0.3,0.1
	c-0.1,0.1-0.1,0.1-0.2,0.1c0,0,0,0,0.1,0C20.6,52.9,20.9,52.7,20.9,52.5 M21,52.2c0.1,0,0.2,0,0.2,0.1c0,0.1,0,0.1,0,0.1
	c0,0-0.1,0.1-0.1,0.1c0,0.1,0.2,0.1,1-0.1c0.6-0.1,1.1-0.2,1.2-0.3c0.1,0,0.1-0.1,0.2-0.1c0,0,0-0.1,0-0.1c0-0.1-0.3-0.1-0.9,0.1
	c-0.7,0.2-0.8,0.2-0.8,0.1c0-0.1-0.2-0.1-0.4-0.1c-0.2,0-0.4,0-0.4,0c0,0-0.1,0-0.2,0.1C20.7,52.2,20.8,52.2,21,52.2 M20.9,51.7
	C21,51.7,21,51.8,20.9,51.7c0,0.1,0.1,0.1,0.3,0.1c0.2-0.1,0.2-0.1,0.1-0.1c-0.1,0-0.1,0,0-0.1c0.1-0.1,0.1-0.1,0-0.1
	c-0.1,0-0.2,0-0.2,0c-0.1,0-0.1,0-0.2,0.1C20.8,51.6,20.8,51.7,20.9,51.7 M20.8,51.2c0,0,0.1,0,0.1,0C21,51.1,21,51.1,20.8,51.2
	C20.9,51.2,20.8,51.2,20.8,51.2 M21.8,51.8c0,0,0,0-0.1,0.1c0,0.1,0,0.1,0,0.1C21.8,52,21.8,51.9,21.8,51.8
	C21.9,51.8,21.9,51.8,21.8,51.8 M21.9,51.7c0.1,0,0.1,0,0.1-0.1C22,51.5,21.9,51.5,21.9,51.7C21.8,51.7,21.8,51.7,21.9,51.7
	 M21.8,51.1C22,51,22,51,21.8,51.1c-0.2,0.2-0.2,0.2,0,0.3c0.1,0,0.3,0,0.9-0.3c0.1-0.1,0.1-0.1,0.1,0c-0.2,0.1-0.1,0.2,0.1,0.1
	c0.1,0,0.2,0,0.1,0c0,0,0,0.1,0,0.1c0,0-0.1,0.1-0.3,0.1c-0.2,0-0.3,0.1-0.3,0.1c0,0.1,0,0.1-0.2,0.2c-0.6,0.3-0.3,0.3,0.6,0.1
	c1.2-0.3,1.3-0.3,1.1-0.4c-0.1,0-0.1-0.1,0.1-0.2c0.1-0.1,0.2-0.1,0.2-0.2c0-0.1,0.1-0.1,0.3-0.1c0.1,0,0.3-0.1,0.4-0.2
	c0.2-0.2,0.2-0.2,0.1-0.2c-0.2,0-0.1-0.1,0.1-0.2c0.2-0.1,0.9-0.3,1.3-0.6c0.2-0.1,0.5-0.3,0.7-0.3c0.2-0.1,0.3-0.2,0.3-0.2
	c0,0,0.2-0.1,0.4-0.2c0.2-0.1,0.5-0.2,0.5-0.2c-0.8-0.3-2.4,0.2-3.2,0.4c-0.3,0.1-0.6,0.2-0.7,0.3c-0.1,0.1-0.2,0.1-0.3,0.1
	c-0.1,0-0.2,0-0.4,0.1c-0.1,0.1-0.3,0.2-0.5,0.2c-0.3,0.1-0.5,0.2-0.4,0.3c0.1,0.1,0.4,0.1,0.5,0c0.1-0.1,0.1-0.1,0.2-0.1
	c0.1,0,0.1,0-0.1,0.1c-0.1,0.1-0.1,0.1,0.1,0c0.5-0.1,0.7-0.2,0.7-0.1c0,0-0.3,0.1-0.6,0.2c-0.4,0.1-0.5,0.1-0.5,0.2
	c0,0.1-0.1,0.1-0.1,0.1c0,0-0.1-0.1-0.2-0.1c-0.1,0-0.1,0-0.1,0c-0.1-0.1-0.4-0.2-0.5-0.1c-0.3,0.1-0.4,0.1-0.4,0.2
	c0,0-0.1,0.1-0.1,0.1c-0.1,0-0.2,0.1-0.2,0.2C21.4,51.1,21.5,51.1,21.8,51.1 M30.6,47.8c0,0.1,0.4,0.1,0.4,0c0,0,0-0.1-0.2-0.1
	C30.7,47.8,30.6,47.8,30.6,47.8 M38.1,55.3c0-0.1-0.5-0.6-0.6-0.6c0,0-0.1,0.1-0.1,0.1c0,0.1-0.2,0.1-0.5,0.2
	c-0.2,0-0.5,0.1-0.6,0.1c-0.1,0.1-0.2,0-0.2-0.1c-0.1-0.1-0.2-0.2-0.3-0.1c-0.3,0.1-0.4,0.3-0.1,0.3c0.2,0,0.2,0,0.1,0.2
	c-0.1,0.1-0.1,0.2,0,0.2c0.1,0,0.1,0.2,0,0.3c-0.1,0,0.1,0.1,0.4,0.1C36.8,56.1,38,55.8,38.1,55.3 M34.2,58.6c0,0,0.1-0.1,0.1-0.1
	c0-0.1,0-0.1,0-0.1c0,0-0.1,0.1-0.1,0.1C34.2,58.6,34.2,58.6,34.2,58.6 M34.1,60.5c0-0.1,0-0.2,0.1-0.2c0.1-0.1,0.1-0.2,0.1-0.3
	c0-0.3-0.6-0.3-0.7,0c0,0.1-0.2,0.2-0.3,0.2c-0.1,0-0.2,0.1-0.2,0.2c0,0.1,0,0.3,0,0.3c0.1,0,0,0.1-0.1,0.3
	c-0.2,0.2-0.2,0.2-0.1,0.3c0.1,0.1,0.2,0.1,0.3,0c0.1-0.1,0.3-0.1,0.5-0.2C33.9,61.2,34.1,60.8,34.1,60.5 M36.1,61.2
	c0.2-0.2,0.1-0.5-0.1-0.5c-0.1,0-0.2-0.1-0.2-0.3c0-0.2-0.1-0.3-0.2-0.4c-0.1,0-0.1-0.2-0.1-0.3c0-0.1-0.1-0.3-0.2-0.3
	c-0.1-0.1-0.1-0.1,0-0.3c0.3-0.4,0.2-0.6-0.1-0.5c-0.3,0.1-0.3,0-0.1-0.2c0.1-0.2,0.1-0.2-0.1-0.2c-0.1,0-0.3,0.1-0.3,0.1
	c-0.1,0.1-0.2,0.3-0.3,0.5c-0.2,0.3-0.2,0.4-0.1,0.4c0.1-0.1,0.1,0,0,0.2c0,0.2-0.1,0.2,0,0.1c0.1-0.3,0.2-0.2,0.1,0.2
	c-0.1,0.3-0.1,0.3,0.1,0.3c0.2-0.1,0.3,0,0.2,0.1c0,0.1,0,0.2,0.1,0.2c0,0,0,0.1,0,0.2c0,0.1-0.2,0.2-0.3,0.2c-0.2,0-0.2,0-0.1,0.2
	c0.1,0.2,0.1,0.2-0.1,0.3c-0.1,0-0.2,0.1-0.2,0.2c0,0.1,0,0.1,0.1,0c0,0,0.2,0,0.3,0c0.2,0.1,0.2,0.1,0.1,0.1
	c-0.1,0-0.3,0.1-0.5,0.3c-0.2,0.2-0.2,0.3-0.1,0.2c0.1-0.1,0.4-0.1,0.6-0.2c0.3,0,0.6-0.1,0.7-0.1c0.1,0,0.3,0,0.4-0.1
	c0.1,0,0.1-0.1,0.1-0.2C36,61.4,36,61.3,36.1,61.2 M38.3,48.7c0,0.1,0.1,0.1,0.1,0.1c0,0,0.1,0,0,0.1c-0.1,0.2,0.4,0.3,0.6,0.2
	c0.1-0.1,0.2-0.1,0.3,0c0.1,0.1,0.1,0.1-0.2,0.2c-0.3,0.1-0.3,0.1-0.2,0.2c0.1,0.1,0.2,0.1,0.1,0.1c-0.1,0,0,0.1,0.2,0.2
	c0.3,0.2,0.3,0.2,0.4,0c0-0.1,0.1-0.2,0.1-0.2c0,0,0.1-0.1,0.2-0.2c0.1-0.1,0.2-0.2,0.2-0.2c0.2,0,0.4,0.2,0.4,0.4
	c-0.1,0.2,0.6,0.2,0.6,0c0-0.1,0-0.1,0-0.1c0,0-0.2-0.1-0.4-0.2c-0.2-0.1-0.4-0.3-0.6-0.3c-0.1,0-0.3-0.1-0.3-0.2c0,0-0.1-0.1-0.1,0
	c0,0-0.1,0-0.1-0.1c0-0.1-0.3-0.2-0.4-0.1c0,0.1,0,0.1,0,0.2c0,0,0,0-0.1,0C39.1,48.6,38.3,48.5,38.3,48.7 M40.4,48.7
	c0.2,0,0.5,0.1,0.5,0.1c0.2,0.1,0.9-0.1,0.9-0.3c-0.1-0.1-0.9-0.3-0.9-0.2c0,0-0.2,0-0.5,0C39.8,48.4,39.8,48.6,40.4,48.7
	 M47.4,49.4c0,0.2,0.1,0.2,0.4,0.1c0.1,0,0.2-0.1,0.3-0.1c-0.1,0-0.2,0-0.3,0C47.5,49.3,47.4,49.3,47.4,49.4 M48.5,54
	c0,0.1,0,0.1,0.1,0.2c0.1,0.1,0.3,0,0.3-0.1C48.9,53.9,48.6,53.9,48.5,54 M49.3,53.2c0.1,0,0.2,0.1,0.3,0.2c0.1,0.1,0.3,0.2,0.5,0.2
	c0.1,0,0.2,0,0.4,0c-0.1-0.1-0.2-0.2-0.3-0.3c-0.2-0.1-0.3-0.3-0.3-0.4c0-0.2,0.5-0.9,0.6-0.9c0.1,0,0.1,0,0.1-0.1
	c0-0.1,0.3-0.2,1.1-0.3c0.2,0,0.4-0.1,0.4-0.2c0-0.1-0.5-0.2-0.6-0.1c-0.1,0-0.3,0-0.4,0c-0.5-0.1-1.2,0.2-1.3,0.5
	c-0.1,0.1-0.2,0.3-0.2,0.2c-0.1,0-0.1,0.1-0.1,0.2c0,0.1,0,0.2,0,0.2c0,0-0.1,0.1-0.1,0.2c0,0.1-0.1,0.2-0.2,0.2
	C48.8,52.9,49.1,53.1,49.3,53.2 M49.3,49.7c0,0.1,0.1,0.1,0.2,0C49.5,49.6,49.5,49.6,49.3,49.7C49.3,49.6,49.2,49.6,49.3,49.7
	 M49.6,49.6c0.1,0.1,0.5,0.1,0.5,0c0,0-0.1-0.1-0.3-0.1C49.7,49.5,49.6,49.6,49.6,49.6 M50.4,49.7c0.1,0,0.2,0,0.2,0
	c0.1,0,0.1-0.1,0-0.1C50.6,49.6,50.5,49.6,50.4,49.7C50.3,49.7,50.3,49.7,50.4,49.7 M56,51.2c0.2,0,0.3,0.1,0.2,0.1
	c0,0.1,0.2,0.3,0.7,0.4c0.4,0.2,0.4,0.2,0.4,0c-0.1-0.2-0.1-0.2-0.3-0.3c-0.1-0.1-0.2-0.1-0.3-0.2c-0.1-0.2-0.8-0.5-0.9-0.3
	c0,0.1,0,0.1,0,0.1c0,0,0,0.1,0,0.1C55.7,51.1,55.8,51.2,56,51.2 M57.4,52.2c0.2,0,0.3,0,0.5,0.1c0.3,0,0.5,0.1,0.5,0.1
	c0-0.1-0.1-0.2-0.3-0.2c-0.1,0-0.2-0.1-0.2-0.1c0-0.1-0.3-0.1-0.3,0.1C57.5,52.1,57.4,52.1,57.4,52.2 M60.2,54.1
	C60.2,54,60.2,54.1,60.2,54.1c0,0.1,0,0.2,0.1,0.2c0,0,0.1,0,0-0.1C60.3,54.1,60.3,54.1,60.2,54.1 M63.9,55.2
	c0.2,0.1,0.8,0.4,0.8,0.3c0-0.1-0.1-0.2-0.5-0.4c-0.2-0.1-0.4-0.2-0.4-0.2c0,0-0.1-0.1-0.1,0C63.6,54.9,63.7,55.1,63.9,55.2
	 M64.5,55.8c0,0,0,0.1,0.1,0.1c0.2,0.1,0.3,0.2,0.2,0.1C64.7,55.9,64.5,55.7,64.5,55.8 M65,55.6c0.1,0.1,0.2,0.1,0.3,0.2
	c-0.1-0.1-0.1-0.1-0.2-0.2C65,55.6,65,55.6,65,55.6C64.9,55.5,64.9,55.5,65,55.6 M69.9,64.8C69.9,64.8,69.9,64.8,69.9,64.8
	C70,64.8,70,64.7,69.9,64.8C69.9,64.7,69.9,64.7,69.9,64.8 M69.9,67c0,0-0.2-0.1-0.2-0.3c-0.3-0.4-0.3-0.4-0.2-0.1
	c0.1,0.4,0.2,0.6,0.1,0.6c-0.1,0,0,0.4,0.1,0.5c0.1,0.1,0.1,0.1,0.1,0c0-0.1,0-0.1-0.1-0.1c0,0-0.1,0-0.1-0.1c0-0.1,0.1-0.1,0.3,0
	c0.1,0.1,0.1,0.1,0.1-0.1c0-0.1,0-0.2,0.1-0.1C70.2,67.4,70.1,67,69.9,67 M70.3,68.9c0-0.3-0.1-0.3-0.2-0.7
	c-0.1-0.2-0.2-0.4-0.2-0.4c0,0,0,0.1,0.1,0.1c0,0.1,0,0.1,0,0.1c-0.1-0.1-0.1,0.1,0.1,0.5c0.1,0.3,0.2,0.8,0.1,1
	c0,0.1-0.1,0.1-0.1,0c-0.1-0.2-0.1-0.2,0,0c0.1,0.6,0.1,0.7-0.1,0.6c-0.2,0-0.3,0.2-0.3,0.7c0,0.2,0,0.5,0.1,0.4
	c0-0.1,0.1,0,0.1,0.3c0.1,0.5,0.2,0.5,0.2,0c0-0.3-0.1-0.4-0.2-0.5c-0.1-0.2-0.1-0.3,0-0.2c0,0,0.1,0,0,0c0-0.1,0-0.1,0.1-0.1
	c0.1,0,0.1,0.1,0.1,0.2c0,0.1,0,0.1,0,0.3c0.1,0.2,0.1,0.2,0.1,0c0-0.1,0-0.1,0.1-0.1c0.1,0.1,0-0.1-0.1-0.3c-0.1-0.1-0.1-0.2,0-0.2
	c0.1,0,0.1,0.1,0.1,0.2c0.1,0.3,0.2,0.3,0.1,0c0-0.2,0-0.2,0.1-0.2c0.1,0,0.1,0,0.1-0.1c0-0.1,0-0.1,0.1,0c0.1,0.2,0.1,0,0-0.4
	C70.4,69.4,70.4,69.2,70.3,68.9 M70.5,78.4c-0.2-0.1-0.4-0.5-0.3-0.8c0-0.1,0-0.3-0.1-0.5c-0.1-0.3-0.1-0.3-0.2-0.4
	c-0.1,0-0.1,0.1-0.1,0.2c0,0.1,0.1,0.3,0.1,0.4c0,0.1,0.1,0.3,0,0.3c0,0,0,0.1,0.1,0.3c0.1,0.2,0.1,0.3,0.2,0.2c0,0,0,0,0.1,0.1
	c0,0.1,0.1,0.2,0.1,0.2c0,0,0.1,0,0.2,0.1c0,0.1,0.1,0,0-0.1c0-0.1,0,0,0.1,0.1c0.2,0.2,0.2,0.2,0.1,0
	C70.7,78.6,70.6,78.5,70.5,78.4 M70.8,79.1c0,0,0,0.1,0.1,0.1c0,0,0.1,0,0,0C70.8,79,70.7,79,70.8,79.1 M71,79.2
	c0.1,0.1,0.1,0.2,0.1,0.2c0,0.1,0,0.1,0.1,0.3c0.1,0.2,0.1,0.2,0.1-0.1C71.1,79.2,71.1,79,71,79C70.9,79,70.9,79,71,79.2 M70.1,86.7
	c0,0.1,0,0.1,0.1,0.1c0.2-0.1,0.2-0.2,0-0.2C70.2,86.6,70.1,86.7,70.1,86.7 M71,79.8C71,79.9,71,80,71,79.8c0,0.1,0.1,0.1,0.1,0.2
	c0,0.1,0.1,0.1,0.1,0.1C71.2,80,71.2,79.9,71,79.8C71,79.7,71,79.7,71,79.8 M71,80c-0.1-0.4-0.1-0.6-0.3-0.7c-0.1,0-0.1,0,0,0.2
	c0.1,0.2,0.1,0.3,0.1,0.1c0.1-0.1,0.1-0.1,0.1,0.1c0,0.2,0,0.3,0.1,0.4C71,80.3,71,80.2,71,80 M70.4,79C70.5,79.2,70.5,79.2,70.4,79
	c0-0.2,0-0.3-0.1-0.3c0,0-0.1,0-0.1,0C70.3,78.8,70.4,78.9,70.4,79 M70.4,80.2c0-0.2,0-0.4,0-0.4C70.4,79.7,70.3,79.9,70.4,80.2
	C70.2,80.7,70.3,80.7,70.4,80.2 M69.2,74C69.2,74,69.1,74.1,69.2,74c-0.1,0.1-0.1,0.3-0.1,0.5c0,0.3,0.1,0.4,0.2,0.6
	c0,0.1,0.1,0.1,0.1,0.2v-0.2C69.4,74.8,69.2,74,69.2,74 M68.2,63.2c0,0,0.1,0.5,0.2,0.7c0.1,0.1,0.3,0.6,0.5,1.2
	c0.3,0.9,0.4,1,0.4,0.9c0-0.1,0-0.1,0.1,0c0.1,0.1,0.1,0-0.1-0.2c-0.1-0.2-0.2-0.3-0.2-0.4c-0.1-0.2-0.1-0.5-0.1-0.5
	c0.1,0,0-0.1-0.1-0.3c-0.1-0.2-0.5-0.9-0.5-1.1C68.4,63.5,68.4,63.4,68.2,63.2c-0.1-0.3-0.1-0.3-0.1-0.2
	C68.2,63.2,68.2,63.2,68.2,63.2 M69.1,86.4C69.1,86.5,69.2,86.4,69.1,86.4C69.2,86.4,69.2,86.4,69.1,86.4
	C69.1,86.4,69.1,86.4,69.1,86.4 M68.6,85.1c0.1-0.1,0.1-0.2,0-0.2C68.5,85,68.5,85,68.6,85.1C68.5,85.2,68.6,85.2,68.6,85.1
	 M68.3,85.1c0,0,0-0.1,0-0.3c0-0.3,0-0.3-0.1-0.2C68.2,84.8,68.2,85.1,68.3,85.1 M68.2,86.8c0.1,0,0.3,0,0.4,0.1
	c0.2,0.1,0.8,0,0.8-0.1c0-0.1-0.1-0.1-0.2-0.1c-0.1,0-0.2-0.1-0.2-0.2c0-0.1-0.1-0.1-0.3-0.1c-0.2,0.1-0.3,0.1-0.4,0
	c-0.1-0.2-0.4-0.1-0.5,0.1C67.8,86.6,68,86.8,68.2,86.8 M67,83.9c0-0.1,0-0.1,0-0.1C66.9,83.8,66.9,83.8,67,83.9
	c-0.1,0.1-0.1,0.1,0,0.1C66.9,84,67,83.9,67,83.9 M67,84.9C67,84.9,67,84.9,67,84.9c0.1-0.1,0.1-0.2,0-0.2c0,0-0.1,0-0.1,0.1
	C67,84.8,67,84.9,67,84.9 M67.2,83.8c0,0.1,0,0.3,0.1,0.4c0,0.2,0.1,0.5,0.1,0.7c0,0.5,0.3,1.4,0.5,1.3c0.1,0,0.1-0.2,0.3-0.5
	c0.1-0.5,0.1-0.5,0-0.9C68,84.5,68,84.3,68,84.2c0-0.1,0-0.2,0-0.3c-0.1-0.1-0.1-0.3-0.2-0.4c0-0.1-0.1-0.2-0.1-0.2
	c0,0-0.2-0.2-0.3-0.6c-0.1-0.3-0.5-0.6-0.5-0.6c-0.1,0-0.2,0-0.2,0c-0.1,0-0.1,0-0.1,0.1c0,0.1,0.3,0.4,0.4,0.8
	C67.1,83.4,67.2,83.8,67.2,83.8 M69.5,86.8c0,0-0.1,0.1-0.1,0.1c0,0.1,0,0.1,0,0.1C69.5,87,69.6,86.9,69.5,86.8
	C69.6,86.8,69.6,86.8,69.5,86.8 M70.1,84.5c0,0,0-0.2,0.1-0.3c0.1-0.1,0.2-0.3,0.2-0.5c0-0.2,0.1-0.3,0.2-0.3c0.1,0,0.2-0.2,0.1-0.2
	c0,0,0-0.2-0.1-0.4c0-0.2,0-0.4,0-0.4c0,0,0-0.1,0-0.1c0-0.1,0-0.1,0-0.1c0,0,0.1-0.1,0-0.2c0-0.1,0-0.2,0-0.2c0.1,0,0.1,0,0-0.1
	c-0.1-0.1-0.2-0.2-0.2-0.3c-0.2-0.3-0.2-0.2-0.2,0.2c0,0.2-0.1,0.4-0.1,0.4c0,0-0.1,0.1-0.1,0.3c-0.1,0.2-0.2,0.4-0.3,0.4
	c-0.1,0.1-0.2,0.2-0.2,0.4c0,0.1-0.1,0.2-0.2,0.1c-0.1,0-0.2,0-0.2,0.1C69,83.7,69,84.3,69,84.3c0,0,0,0.2,0,0.4
	c0,0.3,0,0.3,0.1,0.3c0.1,0,0.1,0,0.1,0.1c0,0.1,0.1,0.1,0.2,0c0.1,0,0.2,0,0.2,0.1c0,0.1,0,0.1,0.1,0C69.9,85,70.1,84.6,70.1,84.5
	 M69.9,86.7C69.8,86.6,69.8,86.7,69.9,86.7c-0.1,0.1-0.1,0.2-0.1,0.1c0,0-0.1,0.1-0.1,0.1c0,0.1,0,0.1,0,0c0.1-0.1,0.1-0.1,0.2-0.1
	C69.9,86.9,70,86.7,69.9,86.7 M69.9,87.1c0,0.1,0,0.1,0.1,0.1c0.1,0.1,0.1,0.1,0.1-0.1C70.1,87.1,70,87,69.9,87.1
	C69.9,87.1,69.9,87.1,69.9,87.1 M71,86.5c-0.2,0.2-0.4,0.5-0.4,0.6c-0.1,0.2,0,0.2,0.2-0.2c0.1-0.2,0.2-0.3,0.3-0.3
	c0,0,0.1-0.1,0.1-0.1C71.2,86.3,71.1,86.3,71,86.5 M71.5,83.1c-0.1,0.1-0.4,0.2-0.4,0.1c0-0.1-0.3,0.3-0.3,0.6
	c0,0.1-0.1,0.3-0.1,0.3c-0.1,0.1-0.3,0.8-0.2,1c0,0.1,0,0.2-0.1,0.5c-0.1,0.2-0.1,0.3,0,0.3c0,0,0.1-0.3,0.2-0.6
	c0.1-0.3,0.1-0.5,0.2-0.5c0,0,0,0.1,0,0.1c0,0.1,0,0.2,0,0.3c0,0.2,0,0.2,0.1,0.1c0.1-0.2,0.2-0.2,0.1,0c-0.1,0.1-0.1,0.3,0,0.3
	c0,0,0.1-0.4,0.1-0.5c0-0.1,0-0.3,0-0.4c0-0.1,0-0.2,0-0.3c0.1-0.1,0.1-0.2,0.2-0.3c0.1-0.2,0.2-0.3,0.1-0.2c0,0-0.1,0.1-0.2,0.2
	c-0.1,0.2-0.1,0.1-0.2,0c0-0.1,0-0.2,0-0.3c0-0.1,0.1-0.2,0.3-0.2c0.2,0,0.3-0.1,0.4-0.2C71.6,83,71.6,82.9,71.5,83.1 M71.5,87.2
	c0,0-0.1,0.1-0.1,0.1c-0.1,0.1-0.1,0.1,0,0.1C71.4,87.4,71.5,87.3,71.5,87.2C71.5,87.2,71.5,87.2,71.5,87.2 M71.5,84.6
	C71.6,84.6,71.5,84.6,71.5,84.6c-0.1-0.1-0.1,0-0.1,0c0,0,0,0.1,0.1,0.1C71.5,84.7,71.5,84.7,71.5,84.6 M71.2,80.5
	c0-0.1-0.1,0-0.1,0.1c0,0.1-0.1,0.3,0,0.4c0,0.1,0,0.1,0,0.1c0-0.1,0-0.2,0.1-0.2c0.1,0,0.1,0,0.2,0.2c0.1,0.3,0.2,0.4,0.3,0.4
	c0.1,0,0.1-0.1,0-0.2c-0.1-0.2-0.1-0.2,0-0.2c0,0,0.1,0,0.1,0c0-0.1-0.3-0.9-0.3-0.9c0,0,0,0.1-0.1,0.3
	C71.3,80.6,71.2,80.7,71.2,80.5 M71.8,85.9c0,0-0.1,0.1-0.1,0.2c0,0.1,0,0,0.1,0C71.8,85.9,71.9,85.8,71.8,85.9
	C71.8,85.8,71.8,85.8,71.8,85.9 M71.7,84.5C71.7,84.6,71.7,84.6,71.7,84.5c0.1,0,0.2,0,0.2,0.1c0.1,0,0.1,0,0.1-0.1
	c0-0.1,0-0.1-0.2-0.1C71.8,84.4,71.7,84.5,71.7,84.5 M71.8,83.6c0,0,0.3-0.8,0.2-0.8c0,0,0,0,0,0.1c0,0.1,0,0.1,0-0.1
	c0-0.2,0-0.2,0,0C71.9,83,71.8,83.6,71.8,83.6 M72.2,83.4C72.2,83.4,72.3,83.4,72.2,83.4C72.3,83.4,72.3,83.3,72.2,83.4
	C72.2,83.4,72.2,83.4,72.2,83.4 M74.7,85C74.7,85.1,74.7,85.1,74.7,85C74.8,85,74.8,85,74.7,85C74.7,84.9,74.7,84.9,74.7,85
	 M78.3,81.7c0,21.6-17.5,39.2-39.2,39.2C17.5,120.8,0,103.3,0,81.7C0,60,17.5,42.5,39.2,42.5S78.3,60,78.3,81.7 M64,68.9
	c0,0,0,0,0,0.1c0,0.1,0.1,0.1,0.1,0.1c0,0,0-0.1,0-0.1C64.1,68.9,64.1,68.9,64,68.9 M63,61.3c0,0,0,0.2,0,0.4c0,0.4-0.1,1-0.2,1.1
	c-0.1,0.1-0.1,0.1,0,0.1c0.1,0,0.2-0.1,0.2-0.2c0.1-0.1,0.1-0.2,0.1-0.2c0.1,0,0.1-0.5,0-0.9C63.1,61.4,63,61.3,63,61.3 M58.1,64.5
	c0.1,0,0.2,0,0.2,0C58.3,64.4,58.3,64.4,58.1,64.5C58.1,64.4,58,64.4,58.1,64.5 M58.4,53.7C58.5,53.9,58.5,53.8,58.4,53.7
	c0-0.2-0.2-0.4-0.2-0.2C58.2,53.5,58.3,53.6,58.4,53.7 M57.6,64.2c0,0-0.1,0-0.2,0.1c-0.2,0.1-0.3,0.2-0.2,0.4
	c0.1,0.3,0.1,0.2,0.2-0.1c0-0.1,0.1-0.2,0.2-0.2c0.1,0,0.1-0.1,0.1-0.1C57.7,64.3,57.6,64.2,57.6,64.2 M58.5,66.1
	c-0.1,0-0.2,0-0.2,0.1c0,0.1,0.1,0.1,0.2,0.1c0.1,0,0.2-0.1,0.2-0.1C58.7,66.2,58.6,66.1,58.5,66.1 M55.5,54.1c0,0.1,0,0.2,0.1,0.2
	c0,0,0.1,0.1,0.1,0.2c0,0.1,0.1,0.1,0.1,0.1c0,0,0-0.2-0.1-0.3C55.6,53.9,55.5,53.9,55.5,54.1 M58.8,53.5
	C58.8,53.5,58.7,53.5,58.8,53.5c0,0.2,0.1,0.2,0.1,0.2c0,0,0,0,0-0.1C58.8,53.5,58.8,53.5,58.8,53.5 M59.1,63.7c0,0,0,0.1,0.1,0.1
	c0.1,0.1,0.2,0.1,0.2,0.1c0,0,0-0.1-0.1-0.1C59.2,63.8,59.1,63.7,59.1,63.7 M24.7,49.9c0.1-0.1,0.1-0.1-0.2,0
	c-0.1,0-0.1,0.1-0.2,0.1c0.1,0,0.1,0,0.1,0C24.6,50,24.7,50,24.7,49.9 M17.7,65.7c0.2,0,0.4-0.1,0.5-0.2c0.1-0.2,0.2-0.4,0-0.2
	c0,0-0.2,0.1-0.4,0.1C17.4,65.5,17.3,65.7,17.7,65.7 M14.9,57.3c-0.1,0.1-0.2,0.2-0.3,0.3c-0.1,0.1-0.2,0.2-0.3,0.3c0,0,0.1,0,0.1,0
	c0.1,0,0.2-0.1,0.2-0.1c0.1-0.1,0.1-0.1,0.2-0.1c0,0,0,0-0.1,0.1c-0.1,0.1,0,0.1,0.1-0.1c0.1-0.1,0.3-0.2,0.4-0.3
	c0.3-0.1,0.4-0.3,0.1-0.2c-0.2,0.1-0.2,0.1-0.1,0c0.2-0.2-0.1-0.1-0.6,0.2c-0.2,0.1-0.2,0.1-0.4,0.2c0.1-0.1,0.2-0.1,0.3-0.1
	C14.7,57.4,14.8,57.3,14.9,57.3 M15.5,63.2c-0.1,0.1-0.1,0.2-0.1,0.2c0,0,0.1-0.1,0.2-0.2c0.1-0.1,0.1-0.2,0.1-0.2
	C15.7,63,15.6,63.1,15.5,63.2 M15.2,62.4c-0.1,0.2-0.2,0.6-0.1,0.5c0,0,0.1-0.2,0.1-0.3C15.3,62.4,15.2,62.3,15.2,62.4 M16,61.3
	c0,0-0.1,0-0.1,0.1c-0.1,0-0.1,0.1-0.2,0.1c-0.1,0.2-0.1,0.5-0.1,0.6c0,0.1,0,0.3-0.1,0.4c-0.1,0.2-0.1,0.3,0,0.1
	c0.1-0.1,0.2-0.4,0.3-0.8C15.9,61.6,16,61.3,16,61.3 M15.4,61.6c-0.2,0.2-0.2,0.3-0.2,0.3c0,0,0,0.1,0,0.2c-0.1,0.1-0.1,0.1-0.1,0.2
	c0,0,0.1-0.1,0.2-0.2c0.1-0.1,0.2-0.4,0.2-0.5C15.6,61.3,15.6,61.3,15.4,61.6 M15.8,60.2c0,0,0,0.1-0.1,0.2
	c-0.1,0.1-0.1,0.2-0.1,0.2c0.1,0,0.5-0.5,0.6-0.6c0.1-0.1,0-0.1-0.2,0.1C15.9,60.1,15.8,60.2,15.8,60.2 M15,58.5
	C15,58.4,14.9,58.4,15,58.5c-0.1,0.2-0.2,0.2-0.4,0.4c-0.1,0.1-0.2,0.1-0.3,0.2c0.1,0,0.1,0,0.2,0c0.1,0,0.3-0.1,0.4-0.1
	c0.1-0.1,0.3-0.2,0.4-0.3c0.1-0.1,0.3-0.2,0.3-0.2c0,0,0.1-0.1,0.2-0.1c0.1-0.2-0.1-0.1-0.3,0.1C15.3,58.6,15.1,58.6,15,58.5
	 M15.3,59.4c-0.1,0-0.3,0.1-0.4,0.2c-0.2,0.2-0.2,0.2,0.2,0C15.4,59.4,15.5,59.4,15.3,59.4 M17.5,57.8c0.1-0.1-0.1-0.1-0.2,0
	c-0.1,0.1-0.1,0.1-0.1,0.1C17.4,58,17.5,57.9,17.5,57.8 M16.2,64.8c-0.2,0.2-0.8,1.4-0.8,1.6c0,0.2,0.3-0.2,0.6-0.7
	c0.2-0.4,0.3-0.5,0.5-0.8c0.4-0.4,0.4-0.4,0.4-0.1c0,0.2,0,0.3-0.1,0.4c-0.1,0.1-0.2,0.2-0.2,0.3c0,0.1,0,0,0.1,0
	c0.1-0.1,0.1-0.1,0.1,0.1c0,0.1,0,0.2,0,0.3c0.1-0.2,0.2-0.3,0.3-0.4c0.1-0.2,0.3-0.5,0.3-0.5c0-0.1,0.1,0,0.1,0.1
	c0.1,0.3,0.3,0,0.2-0.3c0-0.3-0.2-0.4-0.2-0.1c0,0.1-0.1,0.1-0.1,0.1c0,0,0,0,0-0.1C17.4,64.3,16.5,64.5,16.2,64.8 M16.2,64.1
	c0.1-0.1,0.2-0.1,0.2-0.1c-0.1,0.1,0,0.3,0.4,0.3c0.1,0,0.2,0,0.3,0c0-0.1,0.1-0.2,0.1-0.3c0.1-0.2,0.1-0.3,0-0.3
	c-0.1,0-0.1,0-0.1-0.1c0-0.3-0.2-0.3-0.8,0.2c-0.3,0.2-0.6,0.4-0.6,0.5C15.4,64.4,16,64.3,16.2,64.1 M17,63c0.1-0.2,0-0.3-0.1-0.2
	c-0.1,0.1-0.2,0.3-0.1,0.3C16.9,63.1,16.9,63,17,63 M16.6,66.2c-0.3,0.1-0.4,0.3-0.2,0.3c0.2,0,0.9-0.4,1-0.5
	C17.5,65.8,17.4,65.8,16.6,66.2 M24,61.1c0.1,0,0.2-0.1,0.2-0.1c0.1-0.1,0.1-0.1-0.1,0C23.9,61.1,23.9,61.1,24,61.1 M21.4,62.3
	c0,0,0.1-0.1,0.1-0.2c0.1-0.2,0-0.2-0.1-0.1C21.4,62.1,21.3,62.3,21.4,62.3 M23.1,61c0,0,0.1-0.1,0.1-0.1c0-0.1,0-0.1-0.1-0.1
	c0,0-0.1,0.1-0.1,0.1C23,61,23,61,23.1,61 M24,50.4C24.1,50.4,24,50.3,24,50.4c-0.1,0-0.1,0-0.1,0C23.9,50.5,24,50.4,24,50.4
	 M19.2,55.9C19.2,55.9,19.2,55.8,19.2,55.9C19.2,55.8,19.1,55.9,19.2,55.9c-0.1,0.1-0.1,0.1-0.1,0.1C19.1,56,19.2,56,19.2,55.9
	 M20.7,99.9c0.1-0.1,0.1-0.2,0.1-0.2c-0.1-0.1-0.2,0.1-0.2,0.3C20.6,100.1,20.7,100,20.7,99.9 M23.1,50.9c0.2,0,0.4-0.2,0.3-0.3
	c-0.1-0.1-0.1-0.1-0.1,0.1C23.3,50.7,23.2,50.8,23.1,50.9C23,50.9,23,50.9,23.1,50.9 M20.4,62.2c-0.1,0-0.2,0.1-0.2,0.1
	c-0.2,0.2-0.1,0.2,0.1,0C20.5,62.2,20.5,62.2,20.4,62.2 M20.2,56.6C20.3,56.7,20.3,56.7,20.2,56.6c0.1-0.2,0-0.3-0.1-0.2
	C20.1,56.5,20.1,56.6,20.2,56.6C20.2,56.6,20.2,56.6,20.2,56.6 M21.7,54.4C21.6,54.4,21.5,54.4,21.7,54.4
	C21.6,54.5,21.6,54.4,21.7,54.4C21.7,54.4,21.7,54.4,21.7,54.4 M23.4,53.7c0.1,0,0.2-0.1,0.3-0.1c0,0,0.1-0.1,0.2-0.1
	c0.1,0,0-0.1-0.1-0.1c-0.1,0-0.2,0-0.3,0c0,0-0.1,0-0.1,0c0,0-0.1,0.1-0.1,0.2C23.3,53.7,23.3,53.8,23.4,53.7 M24.7,54.1
	c0.1,0,0.2-0.1,0.2-0.1C24.9,53.9,24.7,53.9,24.7,54.1C24.6,54.1,24.6,54.1,24.7,54.1 M24,55.9c0.1,0,0.2-0.1,0.2-0.1
	c0.1,0,0.1,0,0-0.1c-0.1-0.1-0.2-0.1-0.3,0.1C23.9,55.9,23.9,56,24,55.9 M43.6,56.4c0,0-0.1,0.1-0.1,0.1c0,0.1,0,0.1,0.1,0.1
	C43.7,56.5,43.7,56.5,43.6,56.4C43.7,56.4,43.7,56.4,43.6,56.4 M43.7,53.7c-0.1,0-0.1,0-0.1,0.1c0,0.1,0,0.1,0.1,0.1
	c0,0,0.1-0.1,0.1-0.1C43.8,53.8,43.7,53.7,43.7,53.7 M47.7,86.9c0.1,0,0.3-0.1,0.4-0.1c0.1,0,0.1-0.1,0.1-0.1c0,0,0.1-0.3,0.2-0.5
	c0.2-0.4,0.2-0.4,0.1-0.5c-0.3-0.1-0.7-0.1-0.8,0.1c-0.1,0.1-0.1,0.4-0.2,0.6C47.5,86.9,47.5,86.9,47.7,86.9 M44.4,56.5
	c0,0,0,0.1,0,0.1c0,0.1,0,0.1-0.1,0.1c-0.1,0-0.1,0-0.1,0.1c0,0.1-0.1,0.2-0.1,0.1c0,0-0.1,0-0.1,0.1c0,0.1,0,0.1,0.1,0.1
	c0.2,0,0.5-0.3,0.5-0.4C44.4,56.6,44.4,56.5,44.4,56.5 M9.5,60.7c0,0-0.1,0.1-0.2,0.1C9.3,61,9.3,61,9.5,60.7
	C9.6,60.7,9.6,60.7,9.5,60.7 M39.8,58c-0.1,0.1-0.1,0.2-0.1,0.2c0,0.1,0.3,0,0.4-0.2C40.1,57.9,40,57.8,39.8,58 M68.3,66.4
	c0,0,0-0.1,0-0.1c0-0.1,0-0.1-0.1-0.1c0,0,0,0,0,0.1C68.2,66.3,68.2,66.4,68.3,66.4 M43.3,56.9c0,0.1,0,0.1,0.1,0.2
	c0,0,0.1,0,0.1-0.1C43.4,56.7,43.3,56.7,43.3,56.9 M48.3,90.2c0-0.2,0-0.3-0.1-0.3c0,0-0.1,0.2-0.1,0.6c0,0.3,0,0.7,0,0.8
	c0,0.1,0,0.3,0.1,0.4c0.1,0.2,0.1,0.1,0.2-0.4c0-0.3,0-0.6,0-0.7C48.4,90.5,48.3,90.4,48.3,90.2 M49.4,83.9c0,0.2,0.1,0.4,0.2,0.5
	c0.2,0.2,0.2,0.2,0.1,0C49.5,84.3,49.5,84.1,49.4,83.9c0.1-0.1,0-0.2,0-0.4C49.4,83.7,49.4,83.8,49.4,83.9 M49.6,80.2
	c0.1,0,0.1-0.1,0.1-0.1c0,0-0.1-0.1-0.1-0.1c-0.1,0-0.1,0.1-0.1,0.1C49.4,80.2,49.5,80.2,49.6,80.2 M33.6,82c-0.1,0-0.2-0.1-0.2,0
	c0,0,0.1,0.1,0.2,0.2c0.1,0.1,0.2,0.1,0.2,0C33.8,82.2,33.7,82.1,33.6,82 M33.5,82.6c0,0.1,0,0.1,0,0.1c0.1,0,0.1-0.1,0.1-0.1
	c0-0.1,0-0.1,0-0.1C33.6,82.5,33.6,82.5,33.5,82.6 M39.8,79.3c-0.4-0.2-0.4-0.1-0.2,0.2c0.1,0.2,0.5,0.2,0.5,0
	C40.1,79.5,39.9,79.4,39.8,79.3 M54.6,53.9c0,0,0,0,0,0.1c0,0.1,0.1,0.1,0.1,0.1c0,0,0-0.1,0-0.1C54.6,53.9,54.6,53.9,54.6,53.9
	 M17.2,105.8c0,0,0,0.1,0.1,0.1c0,0,0.1,0,0-0.1C17.3,105.7,17.3,105.7,17.2,105.8C17.2,105.7,17.2,105.7,17.2,105.8 M16.5,104.2
	C16.5,104.2,16.5,104.3,16.5,104.2c0,0.2,0.1,0.2,0.1,0.2c0,0,0,0,0-0.1C16.6,104.3,16.6,104.3,16.5,104.2 M14.7,92.4
	c0,0.1,0.1,0.2,0.2,0.2c0.1,0.1,0.1,0,0-0.1C14.7,92.2,14.6,92.2,14.7,92.4 M13.6,80.5c-0.1,0.1-0.1,0.5-0.1,0.5
	c0,0,0.1-0.1,0.1-0.2C13.8,80.6,13.7,80.3,13.6,80.5 M10.6,66.9c0-0.1,0.1-0.1,0-0.2c0,0,0,0-0.1,0.1C10.5,66.8,10.5,66.9,10.6,66.9
	C10.5,67,10.5,67,10.6,66.9 M10.5,79.3c-0.1,0-0.1,0-0.1,0.2c0,0.2,0.2,0.2,0.2-0.1C10.6,79.4,10.6,79.4,10.5,79.3 M17.6,106.2
	C17.5,106.3,17.5,106.4,17.6,106.2c0.1,0.1,0.2,0,0.2,0C17.8,106.1,17.7,106.1,17.6,106.2 M27.9,54.2C28,54.2,27.9,54.1,27.9,54.2
	c-0.1-0.1-0.2,0-0.1,0C27.8,54.2,27.9,54.2,27.9,54.2 M29.5,116.8C29.5,116.8,29.5,116.8,29.5,116.8
	C29.6,116.8,29.6,116.8,29.5,116.8C29.6,116.8,29.6,116.8,29.5,116.8 M26.3,50.7C26.3,50.7,26.3,50.8,26.3,50.7
	c0.1,0.1,0.1,0.1,0.1,0c0-0.1,0-0.1,0-0.1C26.3,50.7,26.3,50.7,26.3,50.7 M36.3,49.1c0.1,0,0.1-0.1,0.1-0.1
	C36.5,48.9,36.3,49,36.3,49.1C36.2,49.1,36.3,49.2,36.3,49.1 M67.8,79.2c0,0,0,0,0-0.1c-0.1-0.2-0.1-0.2-0.1-0.1
	C67.7,79.1,67.8,79.2,67.8,79.2 M33.7,53c0.1,0,0.1-0.1,0.1-0.2c0-0.1,0-0.1-0.1,0.1C33.6,53,33.6,53.1,33.7,53 M143.4,81.7
	c0,47.1-37.3,81.7-84.7,81.7h-49v-32.7h49c27.1,0,48.8-21.9,48.8-49c0-27.1-21.8-49-48.8-49h-49V0l49,0
	C106.1,0,143.4,34.6,143.4,81.7 M158.1,16.4c0,9,7.4,16.5,16.3,16.5c9.2,0,16.6-7.4,16.6-16.5c0-9-7.4-16.4-16.6-16.4
	C165.5,0,158.1,7.4,158.1,16.4 M192.1,48.2H157v114.8h35.1V48.2z M929.3,207L1000,48.2h-37.2l-25.4,61.4l-27.9-61.4h-39.2l48.2,99.3
	L892.4,207H929.3z M865.4,48.2c-2.3-0.7-5.8-1.2-9.2-1.2c-9.2,0-23.8,3.7-29.8,16.6V48.2h-34v114.8h35.1v-50.1
	c0-22.9,12.7-31.2,26.8-31.2c3.4,0,7.2,0.2,11.1,1.1L865.4,48.2z M699.4,91.8c0.7-8.6,8.1-19.4,22.8-19.4
	c16.6,0,22.7,10.6,23.1,19.4H699.4z M747.9,121.6c-3.2,9-10.4,15-23.1,15c-13.6,0-25.4-9.2-26.1-22.1h79.9c0.2-0.7,0.7-6,0.7-10.9
	c0-36.9-22-58.9-57.5-58.9c-29.8,0-57.3,23.5-57.3,60.5c0,38.5,28.2,61.2,59.8,61.2c29.1,0,47.3-16.6,52.9-36.5L747.9,121.6z
	 M668.9,48.2h-36.9l-24.5,71.3l-26.6-71.3h-38.1l47.1,114.8h35.3L668.9,48.2z M487.6,134c-13.2,0-25.9-9.5-25.9-28.6
	c0-19.4,12.7-28.4,25.9-28.4c13.4,0,25.9,9,25.9,28.4C513.5,124.8,501,134,487.6,134 M487.6,44.7c-34.2,0-61,25.2-61,60.7
	s26.8,61,61,61c34.4,0,61-25.4,61-61S522,44.7,487.6,44.7 M365.7,77c13.6,0,20.6,8.3,23.1,17.1l31.4-9.5
	c-5.1-20.6-23.6-39.9-55.2-39.9c-33.7,0-60.5,25.2-60.5,61c0,35.6,27.5,60.7,61.7,60.7c30.7,0,49.6-19.9,54.7-39.9L390,117
	c-2.5,8.5-10.2,17.1-23.8,17.1c-14.5,0-26.8-10.2-26.8-28.4C339.4,87.2,351.2,77,365.7,77 M202.3,130.3c0.9,12.7,12.5,36,48.5,36
	c30.7,0,45.7-19.2,45.7-38.8c0-16.9-11.5-31.2-35.3-36l-15.2-3c-5.1-0.9-9-3.7-9-8.5c0-6,5.8-9.9,12.5-9.9
	c10.6,0,15.5,6.5,16.4,14.1l29.1-5.3c-1.2-13.4-12.7-34.2-46-34.2c-25.6,0-44.1,17.1-44.1,38.1c0,16.2,9.7,30,34.2,35.3l13.1,3
	c8.6,1.9,11.3,5.3,11.3,9.5c0,5.1-4.4,9.9-13.4,9.9c-12,0-17.5-7.6-18-15.5L202.3,130.3z"/>
</svg>
